<svg xmlns="http://www.w3.org/2000/svg" xmlns:xlink="http://www.w3.org/1999/xlink" width="500" zoomAndPan="magnify" viewBox="0 0 375 374.999991" height="00" preserveAspectRatio="xMidYMid meet" version="1.0"><defs><clipPath id="4a6d3643f1"><path d="M 307 158.480469 L 372.375 158.480469 L 372.375 217.679688 L 307 217.679688 Z M 307 158.480469 " clip-rule="nonzero"/></clipPath><clipPath id="827f3ef223"><path d="M 245 158.480469 L 314 158.480469 L 314 217.679688 L 245 217.679688 Z M 245 158.480469 " clip-rule="nonzero"/></clipPath><clipPath id="5a7213a096"><path d="M 177 158.480469 L 252 158.480469 L 252 217.679688 L 177 217.679688 Z M 177 158.480469 " clip-rule="nonzero"/></clipPath><clipPath id="9fb2fcc1d5"><path d="M 115 158.480469 L 184 158.480469 L 184 217.679688 L 115 217.679688 Z M 115 158.480469 " clip-rule="nonzero"/></clipPath><clipPath id="3c9c602ed4"><path d="M 60 160 L 119 160 L 119 217.679688 L 60 217.679688 Z M 60 160 " clip-rule="nonzero"/></clipPath><clipPath id="1055abb885"><path d="M 0.375 158.480469 L 65 158.480469 L 65 217.679688 L 0.375 217.679688 Z M 0.375 158.480469 " clip-rule="nonzero"/></clipPath></defs><g clip-path="url(#4a6d3643f1)"><path stroke-linecap="butt" transform="matrix(0.440549, 0, 0, 0.439961, -36.924013, 105.927883)" fill="none" stroke-linejoin="miter" d="M 859.497518 127.998515 L 906.402796 127.998515 C 917.096135 127.998515 924.499898 135.003759 924.898903 145.595972 C 925.200374 151.997468 924.898903 158.49663 924.996438 164.800461 C 924.996438 167.401902 924.100893 168.103314 921.697995 168.103314 C 906.50033 168.103314 891.497735 167.899105 876.397605 168.103314 C 873.799638 168.103314 872.904093 167.100028 872.904093 164.596253 C 872.904093 156.99614 872.797691 156.99614 865.198859 156.99614 L 851.003141 156.99614 C 848.999248 156.99614 846.800286 156.703145 846.303746 159.597581 C 845.496869 163.50418 846.59635 165.901412 849.699724 166.895819 C 855.498599 168.600517 861.403876 170.101007 867.202752 171.699161 C 881.797475 175.703426 896.4986 179.396939 911.199725 183.498868 C 919.995573 185.8961 924.898903 192.40414 924.898903 201.495863 L 924.898903 227.998591 C 924.898903 238.200144 917.096135 245.995586 906.899336 245.995586 L 821.201886 245.995586 C 816.999031 245.995586 812.796176 246.29746 808.699723 245.702591 C 800.098944 244.202102 794.300068 236.699655 794.096132 227.998591 C 794.096132 221.002226 794.300068 214.201191 794.096132 207.400156 C 794.096132 204.896381 794.90301 204.203847 797.403442 204.203847 L 842.597431 204.203847 C 845.204265 204.203847 846.401281 204.896381 846.09981 207.604365 L 846.09981 213.899318 C 846.09981 215.897011 847.004222 216.598423 848.999248 216.598423 L 870.199724 216.598423 C 870.997734 216.598423 872.398686 216.500758 872.398686 216.198884 C 872.602622 213.402114 873.001627 210.401135 872.904093 207.604365 C 872.904093 206.698744 871.299205 205.402463 870.199724 205.10059 C 856.704482 201.300533 842.996436 197.802351 829.501194 194.09996 C 822.203832 192.297597 814.897603 190.397568 807.804178 188.195667 C 798.502923 185.398896 794.300068 179.601147 794.096132 169.701468 C 794.096132 161.302279 793.998598 153.098419 794.300068 144.69923 C 794.504004 134.897216 802.102837 127.696642 811.998166 127.696642 L 859.497518 127.803185 Z M 859.497518 127.998515 " stroke="#ffffff" stroke-width="2" stroke-opacity="1" stroke-miterlimit="4"/></g><g clip-path="url(#827f3ef223)"><path stroke-linecap="butt" transform="matrix(0.440549, 0, 0, 0.439961, -36.924013, 105.927883)" fill="none" stroke-linejoin="miter" d="M 652.999027 246.696999 L 652.999027 242.896942 C 652.999027 205.997332 652.999027 169.097721 652.803958 132.295775 C 652.803958 128.797593 653.797038 127.90085 657.104347 127.90085 C 693.103483 128.09618 728.898683 128.09618 764.800284 128.09618 C 776.398035 128.09618 783.801798 135.199089 783.801798 146.696923 L 783.801798 228.300465 C 783.801798 237.099193 779.80288 242.896942 771.601106 246.199795 C 770.501625 246.599334 769.402144 246.803542 768.302663 246.803542 L 655.00292 246.803542 Z M 704.798769 187.298925 C 704.798769 196.204196 705.002705 205.002925 704.798769 213.899318 C 704.798769 216.696088 705.800715 217.699374 708.602618 217.504044 L 728.198207 217.504044 C 730.796174 217.504044 732.002057 216.802632 731.895655 214.103526 L 731.895655 161.000405 C 731.895655 158.398965 730.902576 157.804096 728.499678 157.804096 L 708.602618 157.804096 C 705.596779 157.599888 704.798769 158.798503 704.798769 161.701817 C 705.002705 170.296337 704.798769 178.80207 704.798769 187.39659 Z M 704.798769 187.298925 " stroke="#ffffff" stroke-width="2" stroke-opacity="1" stroke-miterlimit="4"/></g><g clip-path="url(#5a7213a096)"><path stroke-linecap="butt" transform="matrix(0.440549, 0, 0, 0.439961, -36.924013, 105.927883)" fill="none" stroke-linejoin="miter" d="M 553.398463 169.30193 C 550.702961 168.298644 550.303956 170.296337 550.303956 172.897777 L 550.303956 245.897921 L 498.300278 245.897921 L 498.300278 242.399739 C 498.300278 205.597793 498.300278 168.902391 498.096342 132.100445 C 498.096342 128.602263 499.195823 127.803185 502.396732 127.803185 L 559.197338 127.90085 C 560.695825 127.90085 563.001188 128.904136 563.497728 130.102752 C 569.500539 143.19874 575.503351 156.099398 580.79682 169.603803 C 584.795739 179.396939 585.301145 190.095695 585.904086 200.599121 C 585.904086 201.398198 585.904086 202.401484 586.099156 202.898688 C 586.595695 203.697765 587.597642 204.701051 588.395652 204.701051 C 588.998593 204.701051 590.00054 203.6001 590.399545 202.703358 C 590.79855 201.797737 590.49708 200.696786 590.49708 199.702379 L 590.49708 131.896237 C 590.49708 128.602263 591.499026 127.501312 594.699934 127.696642 L 638.998378 127.696642 C 641.800281 127.696642 642.997297 128.300389 642.997297 131.496698 C 642.802228 168.502852 642.802228 205.402463 642.997297 242.399739 C 642.997297 245.400718 642.101752 246.29746 639.095913 246.29746 L 581.701232 246.199795 C 580.202746 246.199795 577.799848 245.196509 577.303308 243.997893 C 571.300496 230.80424 564.801145 217.797039 560.296819 204.097304 C 556.900842 193.300882 555.801361 181.40351 553.495998 169.30193 Z M 553.398463 169.30193 " stroke="#ffffff" stroke-width="2" stroke-opacity="1" stroke-miterlimit="4"/></g><g clip-path="url(#9fb2fcc1d5)"><path stroke-linecap="butt" transform="matrix(0.440549, 0, 0, 0.439961, -36.924013, 105.927883)" fill="none" stroke-linejoin="miter" d="M 409.197984 217.504044 L 430.699931 217.504044 C 435.603261 217.699374 436.002267 217.3975 436.002267 212.700702 L 436.002267 133.6986 C 436.002267 132.00278 436.197336 130.200417 436.401272 128.300389 L 487.997077 128.300389 L 488.201013 130.298082 L 488.201013 227.501388 C 488.201013 237.498732 483.696688 243.50069 474.501835 246.501669 C 473.003349 246.803542 471.495996 246.998872 469.899975 246.998872 C 438.396298 246.998872 406.901487 246.803542 375.504212 247.096537 C 374.298329 247.123173 373.101314 247.01663 371.922032 246.803542 C 370.733883 246.581576 369.590068 246.244188 368.472853 245.800256 C 367.355639 245.347446 366.300492 244.796971 365.289679 244.131073 C 364.287732 243.465175 363.35672 242.710491 362.505509 241.867021 C 361.654298 241.014672 360.891755 240.091294 360.226746 239.088008 C 359.552871 238.0936 358.994263 237.037043 358.542057 235.918335 C 358.080985 234.808505 357.744047 233.663161 357.522377 232.473424 C 357.291841 231.292565 357.18544 230.102828 357.203173 228.904212 C 357.398242 210.800674 357.203173 192.697135 357.203173 174.602475 L 357.203173 128.202724 L 405.003996 128.202724 C 409.596989 128.202724 409.596989 128.202724 409.596989 132.704192 L 409.596989 213.899318 C 409.304385 214.902604 409.304385 216.003554 409.304385 217.504044 Z M 409.197984 217.504044 " stroke="#ffffff" stroke-width="2" stroke-opacity="1" stroke-miterlimit="4"/></g><g clip-path="url(#3c9c602ed4)"><path fill="#f9a600" d="M 118.148438 188.90625 C 112.949219 190.488281 112.773438 192.070312 117.578125 194.625 C 112.15625 195.109375 111.71875 196.605469 115.902344 200.035156 C 110.527344 199.375 109.777344 200.738281 113.257812 204.875 C 108.105469 203.203125 107.136719 204.390625 109.734375 209.097656 C 105.019531 206.457031 103.875 207.425781 105.550781 212.617188 C 101.363281 209.097656 100.042969 209.847656 100.703125 215.257812 C 97.222656 211.035156 95.769531 211.472656 95.285156 216.886719 C 92.730469 212.132812 91.144531 212.265625 89.558594 217.5 C 87.882812 212.265625 86.339844 212.132812 83.742188 216.886719 C 83.300781 211.472656 81.804688 211.035156 78.367188 215.214844 C 78.984375 209.847656 77.664062 209.144531 73.523438 212.574219 C 75.152344 207.425781 73.960938 206.503906 69.25 209.097656 C 71.890625 204.347656 70.921875 203.203125 65.769531 204.875 C 69.25 200.738281 68.5 199.375 63.125 200.035156 C 67.355469 196.605469 66.871094 195.109375 61.449219 194.667969 C 66.253906 192.070312 66.078125 190.488281 60.878906 188.90625 C 66.078125 187.277344 66.253906 185.691406 61.449219 183.097656 C 66.871094 182.65625 67.355469 181.160156 63.125 177.730469 C 68.542969 178.390625 69.25 177.027344 65.769531 172.890625 C 70.921875 174.5625 71.9375 173.375 69.292969 168.667969 C 74.007812 171.304688 75.195312 170.339844 73.523438 165.148438 C 77.664062 168.667969 78.984375 167.917969 78.367188 162.507812 C 81.804688 166.730469 83.257812 166.289062 83.742188 160.878906 C 86.296875 165.628906 87.882812 165.5 89.511719 160.261719 C 91.144531 165.5 92.730469 165.628906 95.285156 160.878906 C 95.769531 166.289062 97.222656 166.730469 100.660156 162.550781 C 100.042969 167.917969 101.363281 168.621094 105.503906 165.191406 C 103.875 170.339844 105.066406 171.304688 109.777344 168.667969 C 107.136719 173.417969 108.105469 174.5625 113.304688 172.890625 C 109.777344 177.027344 110.527344 178.390625 115.902344 177.730469 C 111.71875 181.160156 112.15625 182.65625 117.578125 183.097656 C 112.773438 185.691406 112.949219 187.277344 118.148438 188.90625 Z M 118.148438 188.90625 " fill-opacity="1" fill-rule="nonzero"/></g><g clip-path="url(#1055abb885)"><path stroke-linecap="butt" transform="matrix(0.440549, 0, 0, 0.439961, -36.924013, 105.927883)" fill="none" stroke-linejoin="miter" d="M 153.30265 127.998515 L 200.003992 127.998515 C 210.39586 127.998515 217.702089 134.604221 218.296163 145.098768 C 218.704035 151.899803 218.500099 158.603173 218.597634 165.404208 C 218.597634 167.703775 217.595688 168.200979 215.503127 168.200979 L 169.502261 168.200979 C 167.099363 168.200979 166.496422 167.197693 166.301353 164.995791 C 165.902347 157.102684 165.902347 157.102684 157.895643 157.102684 L 144.196465 157.102684 C 142.201439 157.102684 140.002477 156.303607 139.603471 159.597581 C 139.00053 163.903719 139.603471 165.901412 142.901914 166.895819 C 148.097849 168.502852 153.30265 169.701468 158.498584 171.201958 C 173.696249 175.197344 189.09785 179.201609 204.49945 183.498868 C 213.499234 185.8961 218.296163 192.40414 218.296163 201.700072 L 218.296163 228.096256 C 218.296163 238.502018 210.103257 246.696999 199.702521 246.599334 L 145.402347 246.29746 C 132.900184 246.29746 120.601957 246.404004 108.197329 246.599334 C 95.500097 246.696999 87.502259 238.901556 87.502259 226.196228 C 87.502259 219.901276 87.697328 213.703988 87.502259 207.70203 C 87.502259 205.198254 88.096334 204.301512 90.800702 204.301512 L 136.296162 204.301512 C 138.601525 204.301512 139.701006 205.002925 139.399535 207.302491 L 139.399535 208.696437 C 139.399535 216.802632 139.399535 216.802632 147.698844 216.802632 L 163.499449 216.802632 C 165.795946 216.802632 166.301353 216.003554 166.496422 213.801653 C 166.496422 206.20154 166.496422 206.20154 159.003991 204.097304 C 140.499016 199.098632 121.896507 194.304168 103.4004 189.101288 C 91.598713 185.8961 87.502259 180.497889 87.502259 168.200979 C 87.502259 160.396658 87.502259 152.397007 87.697328 144.601565 C 88.096334 135.003759 95.704033 127.90085 105.404292 127.90085 L 153.400184 127.90085 Z M 153.30265 127.998515 " stroke="#ffffff" stroke-width="2" stroke-opacity="1" stroke-miterlimit="4"/></g></svg>