<?xml version="1.0" encoding="utf-8"?>
<!-- Generator: Adobe Illustrator 27.3.1, SVG Export Plug-In . SVG Version: 6.00 Build 0)  -->
<svg version="1.1" id="Layer_1" xmlns="http://www.w3.org/2000/svg" xmlns:xlink="http://www.w3.org/1999/xlink" x="0px" y="0px"
	 viewBox="0 0 864 1296" style="enable-background:new 0 0 864 1296;" xml:space="preserve">
<style type="text/css">
	.st0{fill:none;stroke:#000000;stroke-miterlimit:10;}
	.st1{fill:none;}
</style>
<g>
	<path class="st0" d="M739.02,619.54c26.04,0,52.08,0,78.12,0c1.24,0,2.48,0,3.72,0.04c4.46,0.14,4.91,0.45,6.44,4.66
		c0.56,1.56,0.85,3.15,0.84,4.85c-0.06,19.6-0.05,39.2-0.05,58.79c0,5.65-0.17,11.32,0.14,16.96c0.21,3.82-2.17,6.74-2.75,10.23
		c-0.05,0.31-0.48,0.75-0.79,0.81c-3.25,0.56-5.56,3.56-9.07,3.49c-1.1-0.02-2.19,0.31-2.67,1.55c-0.15,0.37-0.45,0.97-0.68,0.98
		c-3.26,0.07-5.62,2.16-8.33,3.52c-1.61,0.81-3.77,0.42-4.65,2.69c-0.28,0.72-1.49,0.52-2.28,0.71c-1.63,0.39-3.55-0.01-4.38,2.28
		c-0.38,1.05-1.94,0.83-2.99,1.06c-2.22,0.47-4.73,0.04-6.3,2.39c-0.27,0.4-1.28,0.31-1.95,0.43c-1.85,0.32-4,0.08-4.66,2.57
		c-0.03,0.11-0.2,0.27-0.28,0.26c-4.32-0.44-6.77,4.36-11.16,3.95c-1.55-0.15-3.31,0.15-4.17,2.04c-0.57,1.26-1.94,0.93-2.95,0.96
		c-4.04,0.13-7.87,1.14-11.65,2.44c-1.87,0.64-3.79,0.66-5.71,0.72c-6.2,0.2-12.41,0.69-18.58,0.39c-3.7-0.18-5.53,2.37-8.12,3.86
		c-0.46,0.26-0.66,1.21-0.18,1.44c2.11,1.03,3.21,3.56,6.17,3.43c5.5-0.24,11.02-0.02,16.53-0.02c26.59-0.01,53.18-0.04,79.77-0.03
		c3.02,0,6.06-0.11,9.02,0.82c1.63,0.51,2.56,1.36,2.53,3.22c-0.03,2.62,0.19,5.24,0.19,7.86c0,18.91-0.03,37.82-0.07,56.73
		c-0.01,2.57-0.06,4.83-2.33,7.04c-1.69,1.64-3.21,1.87-5.04,1.88c-7.3,0.05-14.6-0.03-21.9-0.03c-45.05,0-90.11,0.01-135.16,0.01
		c-1.51,0-3.07-0.3-4.54-0.07c-2.86,0.45-4.27-2.13-6.54-2.91c-1.01-0.35-0.59-1.99-0.59-3.06c-0.04-8.56-0.04-17.12-0.03-25.67
		c0.02-19.05,0.06-38.1,0.1-57.14c0-1.52,0.11-3.03,0.16-4.55c0.04-1.15,0.18-2.19,1.52-2.61c0.49-0.15,1.26-0.51,1.3-0.85
		c0.34-2.47,2.28-2.43,4.01-2.69c1.33-0.2,2.72,0.04,3.48-1.64c0.23-0.5,1.45-0.57,2.23-0.81c2.37-0.75,5.29-0.26,6.76-3.12
		c0.2-0.39,1.26-0.36,1.93-0.46c1.25-0.18,2.9-0.38,3.37-1.29c1.06-2.04,2.94-1.76,4.54-2.31c0.39-0.13,0.98-0.12,1.15-0.39
		c1.64-2.46,4.25-2.59,6.78-2.92c1.76-0.24,1.54-2.81,3.68-2.87c1.38-0.04,2.99,0.04,4.26-1.17c1.54-1.48,3.54-1.94,5.67-2.07
		c1.7-0.1,3.5,0.02,4.59-2.01c0.56-1.05,2.17-1.1,3.41-1.15c2.91-0.11,5.68-0.58,8.1-2.36c0.66-0.48,1.4-0.94,2.27-0.88
		c2.98,0.21,5.65-0.97,8.35-1.92c3.56-1.25,7.23-1.6,10.96-1.67c2.19-0.04,4.28-0.34,6.39-1.23c3.2-1.34,6.73-1.26,10.17-1.4
		c1.51-0.06,3.04-0.07,4.54-0.26c2.4-0.31,3.66-2.38,3.09-4.76c-0.34-1.45-1.41-1.51-2.54-1.51c-3.31-0.03-6.61-0.05-9.92-0.05
		c-31.14,0-62.28,0-93.41-0.01c-6.71,0-6.74-0.02-6.75-6.6c-0.02-21.53-0.02-43.06-0.03-64.6c0-0.41,0-0.83,0.01-1.24
		c0.08-4.45,0.08-4.55,4.66-4.56c15.29-0.06,30.59-0.04,45.88-0.05c12.12,0,24.25,0,36.37,0
		C739.02,619.6,739.02,619.57,739.02,619.54z"/>
	<path class="st0" d="M651.81,937.72c0-27.32,0-54.64,0-81.96c0-7.15,0-7.18,6.94-7.21c45.84-0.17,91.69-0.33,137.53-0.48
		c7.44-0.03,14.87-0.01,22.31-0.03c1.53,0,2.99,0.09,4.41,0.8c2.9,1.43,4.75,3.26,4.72,6.91c-0.14,14.62-0.01,29.25-0.06,43.88
		c-0.11,34.49-0.27,68.99-0.41,103.48c-0.02,4-0.11,8-0.11,12c0,3.9-2.04,7.45-1.86,11.37c0.03,0.74-0.45,1.28-1.12,1.59
		c-0.63,0.29-1.34,0.59-1.39,1.37c-0.27,4.26-3.93,5.67-6.35,8.28c-2.34,2.51-4.73,2.82-7.57,3.01c-0.94,0.07-2.09-0.21-2.74,0.61
		c-1.93,2.42-4.59,2.17-7.19,2.17c-39.8-0.01-79.61-0.02-119.41-0.05c-2.02,0-4.1,0.36-5.57-1.78c-0.62-0.91-2.1-0.87-3.11-0.76
		c-4.28,0.46-6.63-2.74-9.71-4.67c-2.1-1.31-3.86-3.26-4.96-4.96c-1.77-2.71-4.71-5.11-4.31-9.14c0.35-3.55-0.01-7.16-0.01-10.75
		C651.81,986.84,651.82,962.28,651.81,937.72C651.82,937.72,651.81,937.72,651.81,937.72z M738.9,925.47
		c-12.95,0-25.89-0.02-38.84,0.01c-3.01,0.01-5.76,2.47-5.78,5.45c-0.08,9.79-0.01,19.59,0.02,29.39c0,1.41,0.8,2.32,1.63,3.48
		c1.84,2.56,4.11,2.73,6.78,2.73c24.1-0.03,48.2-0.02,72.3-0.02c0.96,0,1.93,0.03,2.89-0.06c2.48-0.22,5.54-3.37,5.55-5.84
		c0.05-10.07,0.04-20.14,0.04-30.21c0-0.8,0.23-1.97-0.54-2.28c-2.16-0.87-3.61-2.83-6.47-2.77
		C763.96,925.62,751.43,925.47,738.9,925.47z"/>
	<path class="st0" d="M652.05,1154.75c0-23.05,0-46.1,0-69.14c0-2.87-0.13-5.74,1.89-8.19c0.88-1.06,1.06-2.48,1.24-3.88
		c0.21-1.59,0.62-2.89,2.25-4.07c1.5-1.08,2.32-3.09,3.99-4.44c0.95-0.77,2.4-0.99,2.79-1.7c1.96-3.58,5.44-2.92,8.49-3.52
		c0.4-0.08,1-0.14,1.13-0.39c1.48-2.9,4.18-2.15,6.53-2.16c9.37-0.07,18.73,0.05,28.1-0.11c2.78-0.05,4.22,0.95,5.1,3.55
		c0.63,1.85,1.2,3.64,1.2,5.61c-0.01,16.01,0.03,32.01-0.06,48.02c-0.03,4.69,0.43,9.38-0.18,14.06c-0.14,1.09-0.28,2.19-0.48,3.27
		c-0.34,1.85-1.27,2.88-3.36,2.82c-2.75-0.08-5.51,0.02-8.26,0.16c-4.56,0.22-5.83,1.53-5.85,6.08c-0.03,9.66-0.02,19.32,0.01,28.98
		c0.01,3.98,0.58,4.56,4.41,4.89c1.23,0.11,2.53,0,3.69,0.35c3.08,0.91,5.07-1.34,7.48-2.36c0.55-0.23,0.75-0.82,0.75-1.38
		c-0.03-2.83,1.14-5.25,2.51-7.61c0.94-1.62,0.8-3.46,0.99-5.23c0.22-2.12-0.07-4.28,2.09-5.9c1.13-0.85,0.95-2.78,1.11-4.29
		c0.3-2.83-0.1-5.87,2.26-8.13c0-5.31,2.39-10.02,3.68-15.01c0.68-2.62,0.52-5.31,2.58-7.61c1.23-1.38,0.83-3.68,0.92-5.6
		c0.12-2.49,0.22-4.94,2.31-6.79c1.16-1.02,0.81-2.6,0.87-3.9c0.14-3.07,0.46-6.03,2.26-8.65c0.15-0.22,0.37-0.49,0.36-0.73
		c-0.33-5.79,2.78-10.72,3.96-16.12c0.26-1.21,0.1-2.52,1.72-2.89c0.56-0.13,1-0.58,1.03-1.16c0.25-5.11,5.13-6.76,7.63-10.18
		c0.73-1,2.24-0.97,3.46-1.08c3.26-0.31,6.58-0.21,9.25-2.72c0.56-0.52,1.85-0.35,2.8-0.35c11.85,0.02,23.69,0.06,35.54,0.1
		c0.94,0,2-0.23,2.73,0.6c1.54,1.77,3.7,1.65,5.71,1.95c5.82,0.86,5.83,0.84,10.47,5.65c3.13,0.11,2.59,4.16,5.22,4.9
		c0.41,0.12,0.65,1.15,0.81,1.8c1.75,7.06,3.17,14.08,3.01,21.51c-0.37,16.83,0.37,33.69-0.21,50.51
		c-0.91,26.21-0.69,52.42-0.7,78.63c0,4.47-2.08,8.57-1.92,13.04c0.03,0.8-0.73,1.1-1.29,1.47c-0.6,0.38-1.3,0.85-1.23,1.55
		c0.31,3.43-3.06,4.39-4.38,6.7c-0.36,0.64-1.13,0.76-1.81,0.83c-2.23,0.23-3.24,2.37-4.96,3.18c-1.79,0.84-4.33-0.21-6.01,0.93
		c-3.15,2.13-6.55,1.78-9.95,1.81c-6.61,0.07-13.24-0.16-19.83,0.23c-3.1,0.18-5.06-1.62-7.45-2.72c-0.93-0.43-0.64-1.44-0.65-2.21
		c-0.04-3.59-0.03-7.18-0.04-10.76c-0.02-17.39-0.04-34.78-0.05-52.17c0-1.38,0.03-2.76,0.07-4.14c0.12-4.4,0.18-4.57,4.71-4.75
		c3.33-0.13,6.38-0.62,9.33-2.5c1.47-0.93,1.84-1.74,1.85-3.16c0.02-10.35,0.02-20.7,0.07-31.05c0.01-1.93-0.75-3.04-2.64-3.63
		c-1.75-0.55-3.52-0.9-5.28-0.61c-1.73,0.28-2.57,2.41-4.48,2.56c-0.35,3.33-3.38,5.57-3.6,8.99c-0.16,2.59-0.39,5.15-2.45,7.22
		c-1.06,1.07-0.81,2.88-0.84,4.37c-0.04,2.39-0.53,4.61-1.67,6.71c-0.72,1.33-1.25,2.72-1.34,4.3c-0.18,3.55-0.16,7.15-2.78,10.06
		c-0.76,0.85-0.53,2.12-0.6,3.2c-0.18,3.01-0.28,5.96-2.41,8.48c-1.32,1.56-0.83,3.7-1.05,5.6c-0.25,2.14,0.01,4.31-2.21,5.87
		c-1.26,0.89-0.86,2.8-0.98,4.29c-0.25,3.08,0.27,6.3-2.61,8.73c-0.97,0.82-0.63,2.62-0.71,3.98c-0.18,2.89-0.26,5.79-2.15,8.24
		c-0.62,0.81-0.32,1.87-0.5,2.81c-0.28,1.46-0.19,3.07-1.83,3.92c-0.33,0.17-0.72,0.64-0.71,0.96c0.1,3.41-2.9,5.13-4.23,7.75
		c-0.51,1.01-1.73,1.73-2.75,2.39c-3.02,1.97-5.54,4.24-9.62,4.95c-10.43,1.8-20.85,1.41-31.3,1.46c-3.72,0.02-7.47-0.34-11.15,0.04
		c-5.64,0.59-10.76-1.74-16.18-2.28c-0.79-0.08-1.47-0.51-2.12-1.13c-1.9-1.81-4.18-3.42-5.85-5.24c-1.66-1.81-4.37-3.39-4.48-6.55
		c-0.08-2.32-0.32-4.6-2.5-6.25c-0.96-0.73-0.6-2.35-0.62-3.57c-0.08-5.11-0.08-10.21-0.08-15.32c-0.01-18.91,0-37.81,0-56.72
		C652.02,1154.75,652.03,1154.75,652.05,1154.75z"/>
	<path class="st0" d="M651.83,107.91c0-21.67-0.01-43.34,0.01-65c0-3.17,0.05-6.35,0.22-9.51c0.13-2.26-0.29-4.85,2.52-6.02
		c0.38-3.18,4.59-4.28,4.26-7.87c-0.03-0.33,0.29-0.97,0.53-1.01c2.9-0.49,3.91-4.33,7.22-4.08c0.37,0.03,1.03-0.15,1.11-0.39
		c1.1-3.23,3.91-2.58,6.25-2.69c12.11-0.59,24.24-0.2,36.36-0.26c2.13-0.01,2.95,0.88,2.98,2.93c0.04,3.03,0.28,6.06,0.28,9.1
		c0.01,19.32-0.01,38.64-0.03,57.96c0,0.55,0.01,1.1-0.01,1.66c-0.16,5.19-0.44,5.47-5.66,5.68c-2.75,0.11-5.5,0.27-8.25,0.32
		c-1.84,0.03-2.8,0.72-2.81,2.68c-0.01,2.2-0.27,4.41-0.28,6.61c-0.04,8.42-0.09,16.83,0.01,25.25c0.05,3.87,0.2,3.88,3.97,4.01
		c1.65,0.05,3.31,0.06,4.96,0.02c4.8-0.12,7.09-2.15,7.82-6.87c0.12-0.81,0.01-1.83,0.45-2.39c2.38-3,2.59-6.56,2.93-10.12
		c0.08-0.8,0.09-2,0.58-2.32c2.58-1.64,2.11-4.24,2.42-6.64c0.34-2.66-0.15-5.55,2.2-7.71c0.47-0.44,0.37-1.57,0.41-2.39
		c0.17-3.45,0.39-6.85,2.86-9.64c0.79-0.89,0.44-2.12,0.54-3.2c0.24-2.72,0.13-5.46,2.41-7.64c0.96-0.92,0.84-2.57,0.87-3.96
		c0.08-3.34,0.48-6.6,2.41-9.47c0.08-0.11,0.14-0.25,0.16-0.38c0.63-5.04,2.57-9.74,3.73-14.63c0.58-2.42-0.14-5.11,2.46-6.98
		c0.96-0.69,0.77-2.55,0.9-3.93c0.18-1.89,0.67-3.33,2.34-4.85c1.45-1.32,2.66-3.36,4.02-5.04c1.63-2.02,2.72-4.73,5.94-4.81
		c0.26-0.01,0.55-0.15,0.75-0.32c3.78-3.35,8.44-2.9,12.94-2.91c13.22-0.02,26.45,0.05,39.67,0.13c3.12,0.02,6.43-0.42,8.54,2.77
		c3.04-0.11,4.5,2.52,6.1,4.2c3.53,3.7,7.53,7.47,6.91,13.44c-0.04,0.4-0.08,0.9,0.11,1.22c3.34,5.77,2.04,12.07,2.05,18.2
		c0.04,24.98,0.1,49.96-0.04,74.94c-0.1,17.25-0.38,34.49-0.87,51.73c-0.11,4.04-1.69,8-1.83,12.12c-0.01,0.37-0.29,1.03-0.5,1.06
		c-2.88,0.37-2.09,4.44-4.89,4.82c-0.35,2.58-3.83,2.57-4.21,5.14c-0.02,0.12-0.18,0.31-0.25,0.31c-4.39-0.42-7.19,3.79-11.74,3.65
		c-10.32-0.32-20.66,0.03-30.99,0.08c-0.96,0-1.92-0.21-2.88-0.25c-1.34-0.05-2-0.69-2.02-2.04c-0.02-1.38-0.13-2.76-0.13-4.14
		c-0.01-21.25-0.01-42.51,0.01-63.76c0-5.23,2.25-7.39,7.6-7.56c8.17-0.26,8.43,0.73,8.45-8.47c0.01-8.83,0.02-17.66-0.03-26.5
		c-0.02-3.33-0.09-3.35-3.45-3.53c-1.65-0.08-3.31-0.15-4.96-0.08c-3.42,0.16-3.44,0.23-4.55,3.73c-0.17,0.52-0.21,1.29-0.58,1.52
		c-2.68,1.67-2.44,4.38-2.46,6.91c-0.03,3.34-2.33,5.81-3.09,8.84c-0.75,2.98,0.21,6.32-2.28,8.99c-0.94,1.01-0.95,2.84-0.92,4.38
		c0.05,2.55-0.61,4.92-2.01,7.01c-0.73,1.09-1.06,2.22-1.14,3.47c-0.23,3.71-0.52,7.38-2.96,10.5c-0.44,0.57-0.37,1.58-0.43,2.4
		c-0.21,3.15-0.35,6.32-2.47,8.92c-1.06,1.31-0.88,2.83-1,4.33c-0.2,2.54,0.2,5.15-2.19,7.18c-0.91,0.77-0.92,2.52-1.02,3.92
		c-0.21,2.98-0.2,5.9-2.17,8.62c-0.98,1.35-0.53,3.74-0.74,5.65c-0.17,1.49-0.08,3.1-1.93,3.76c-0.34,0.12-0.83,0.58-0.8,0.83
		c0.4,3.41-3.1,4.71-3.92,7.44c-0.18,0.6-0.58,0.96-1.15,1.02c-1.19,0.13-2.1,0.43-2.25,1.89c-0.1,0.93-0.91,1.26-1.79,1.43
		c-1.86,0.35-3.81,0.42-4.87,2.5c-0.37,0.72-1.48,0.62-2.29,0.69c-1.37,0.11-2.75,0.19-4.12,0.2c-14.88,0.03-29.76,0.05-44.64,0.07
		c-3.45,0.01-6.5-0.53-9.68-2.57c-2.5-1.6-4.54-4.16-7.8-4.77c-1.64-0.31-1.37-3.24-3.42-3.67c-0.79-3.8-4.57-6.29-4.54-10.48
		c0.02-3.03-0.21-6.07-0.21-9.1c-0.02-22.08-0.01-44.16-0.01-66.25C651.83,107.91,651.83,107.91,651.83,107.91z"/>
	<path class="st0" d="M651.35,506.75c0-21.12-0.03-42.24,0.02-63.35c0.01-4.27,0.23-8.55,0.49-12.82c0.1-1.67-0.18-3.68,2.17-4.33
		c0.31-0.08,0.73-0.64,0.7-0.93c-0.44-3.43,2.94-4.8,3.9-7.44c0.3-0.83,0.85-0.97,1.54-1.06c0.84-0.11,1.68-0.26,1.94-1.23
		c0.46-1.69,1.99-1.72,3.27-2.11c1.17-0.36,2.58-0.34,3.53-1c3.45-2.43,7.32-2.01,11.14-2.02c46.71-0.03,93.41-0.05,140.12-0.06
		c0.55,0,1.1,0,1.65,0.03c4.02,0.17,4.15,0.26,4.15,4.32c0,22.77-0.03,45.54-0.06,68.32c0,0.83-0.03,1.65-0.05,2.48
		c-0.03,1.35-0.76,2-2.07,2.05c-0.55,0.02-1.1,0.01-1.65,0c-40.92-0.02-81.84-0.05-122.76-0.06c-0.82,0-1.65,0.06-2.47,0.1
		c-1.96,0.09-3.03,1.03-3.03,3.08c0,2.62-0.1,5.24-0.1,7.86c0,7.59,0,15.18,0.07,22.77c0.04,4.23,0.48,4.67,4.7,4.99
		c1.92,0.14,3.86,0.1,5.78,0.1c36.24-0.01,72.47-0.03,108.71-0.02c3.28,0,6.51-0.07,9.73,1.3c2.45,1.04,3.37,2.31,3.31,4.91
		c-0.15,6.48-0.1,12.97-0.1,19.46c-0.01,15.87,0,31.75,0,47.62c0,4.52-0.69,5.18-5.34,5.18c-45.74-0.05-91.48-0.16-137.22-0.07
		c-5.42,0.01-10.56-1.6-15.91-1.71c-0.98-0.02-1.88-0.27-2.18-1.48c-0.12-0.49-0.5-1.18-0.89-1.28c-3.17-0.81-4.18-4.19-6.47-5.62
		c-3.57-2.23-2.75-6.63-5.61-9.02c-0.64-0.53-0.47-2.08-0.58-3.18c-0.65-6.47-0.37-12.96-0.39-19.45
		C651.31,544.29,651.35,525.52,651.35,506.75z"/>
	<path class="st1" d="M803.11,246.42c1.37,0,2.75-0.02,4.12,0.01c0.82,0.02,1.72,0.01,1.85,1.15c0.08,0.69,0.09,1.7-0.59,1.8
		c-2.05,0.3-2.23,1.83-2.39,3.31c-0.25,2.3-0.67,4.63,0.24,6.92c0.58,1.46,1.69,2.09,3.19,2.12c2.2,0.05,4.4,0.05,6.6,0.14
		c1.08,0.05,2.28,0.08,2.5,1.58c0.18,1.23-0.68,1.46-1.55,2.01c-1.83,1.17-1.47,3.39-1.67,5.18c-0.46,4,0.05,4.49,3.99,4.89
		c0.96,0.1,1.93,0.06,2.88,0.19c2.32,0.32,3.49,2.04,3.04,4.36c-0.05,0.27-0.14,0.75-0.23,0.76c-2.58,0.14-2.57,3.41-4.36,3.91
		c-2.6,0.73-1.55,2.47-1.75,3.91c-0.24,1.68,0.44,2.58,2.23,2.55c0.34-0.01,0.95,0.31,1,0.57c0.53,2.65,2.75,2.21,4.52,2.57
		c0.4,0.08,0.83,0.05,1.23,0.13c0.98,0.2,1.29,0.92,1.29,1.82c-0.01,0.8-0.46,1.34-1.22,1.38c-1.54,0.08-2.65,0.53-2.76,2.32
		c-0.02,0.27-0.56,0.71-0.85,0.71c-2.86,0.01-2.26,2.23-2.46,3.85c-0.24,2.04,0.35,3.86,2.14,5.01c0.78,0.5,1.56,1.13,2.6,1.17
		c1.06,0.04,2.32-0.14,2.4,1.52c0.06,1.36-0.79,1.75-1.88,2.29c-1.47,0.72-2.53,1.95-4.35,2.43c-1.48,0.39-2.55,2.44-3.69,3.86
		c-0.27,0.34-0.21,1.48-0.02,1.55c2.13,0.86,2.56,3.45,4.46,4.36c0.92,0.44,1.78,0.58,1.86,1.78c0.03,0.54,0.11,1.08,0.6,1.46
		c0.69,0.54,2.37,0.17,2.05,1.53c-0.36,1.53-2.09,1.03-3.18,1.21c-2.16,0.36-4.38,0.42-6.58,0.49c-1.53,0.05-2.05,0.78-2.34,2.24
		c-0.38,1.96-0.62,4.06,0.17,5.69c0.87,1.82,2.53,3.38,4.15,4.67c0.76,0.6,1.77,0.79,1.54,1.97c-0.27,1.34-1.47,1-2.36,1.04
		c-2.47,0.12-4.95,0.18-7.43,0.24c-1.55,0.04-3.14-0.05-3.15,2.21c-0.01,1.09-1.2,0.99-1.73,1.55c-0.65,0.69-0.81,1.86-0.09,2.15
		c2.23,0.87,1.92,2.84,2.17,4.48c0.22,1.44,0.23,2.74,2.1,2.95c0.62,0.07,0.78,0.68,0.72,1.28c-0.07,0.66-0.53,0.98-1.1,0.99
		c-1.92,0.03-3.93,1.17-5.5-1.31c-1.06-1.68-4.51-1.59-5.52,0.17c-0.86,1.49-3.18,0.8-3.31,2.68c-0.12,1.92-0.03,3.86,0.03,5.78
		c0.04,1.24,0.24,2.47,0.3,3.7c0.05,0.83,0.04,1.78-1,1.97c-1.01,0.19-2.34,0.65-2.72-0.88c-0.33-1.32-1.07-1.71-2.31-1.88
		c-2.2-0.3-4.4-0.45-6.56,0.08c-0.72,0.18-0.75,1.07-0.77,1.77c-0.07,2.76-0.14,5.51-0.21,8.27c-0.07,2.8-0.45,3.13-3.17,2.44
		c-0.9-0.23-2-0.11-2.6-1.05c-2.34-3.63-5.7-2.15-8.82-1.75c-1.05,0.13-1.06,1.1-1.1,1.93c-0.1,2.07-0.17,4.13-0.28,6.2
		c-0.04,0.88-0.31,1.63-1.32,1.8c-0.93,0.16-1.74-0.17-1.95-1.08c-0.52-2.29-3.38-2.47-4.04-4.81c-0.26-0.91-2.19-0.83-3.41-0.97
		c-1.36-0.15-1.95,1.03-2.87,1.59c-2.41,1.48-2.83,3.54-2.78,5.85c0.06,2.63-1.77,2.26-3.34,2.49c-1.93,0.29-2.19-0.82-2.42-2.41
		c-0.2-1.37-0.09-3.18-1.85-3.8c-2.39-0.84-4.86-0.79-7.33-0.38c-0.62,0.1-0.7,0.74-0.81,1.29c-0.1,0.53-0.18,1.46-0.42,1.52
		c-2.49,0.53-2.35,2.67-2.84,4.43c-0.21,0.76-0.11,1.74-1.35,1.66c-1.11-0.08-1.19-0.99-1.38-1.76c-0.19-0.8-0.32-1.61-0.43-2.43
		c-0.26-1.87-0.04-3.97-2.56-4.61c-0.31-0.08-0.72-0.59-0.72-0.9c-0.03-2.09-1.24-2.37-2.99-2.29c-1.51,0.06-2.69,0.18-2.83,2.08
		c-0.05,0.77-0.82,1.09-1.54,1.1c-1.21,0.02-1.71,0.59-1.75,1.76c-0.04,1.11-0.6,1.76-1.78,1.85c-1.44,0.11-1.58-0.95-2.17-1.92
		c-1.38-2.25-2.98-4.31-3.02-7.12c-0.01-0.83-0.84-1-1.54-1.03c-2.14-0.06-4.27-0.57-5.97,1.62c-1.51,1.95-4.73,1.07-6.3,3.31
		c-0.3,0.42-1.05-0.14-1.18-0.71c-0.18-0.8-0.26-1.64-0.29-2.46c-0.05-1.24,0.04-2.49-0.02-3.72c-0.26-5.18-0.69-5.54-5.93-5.1
		c-1.23,0.1-2.47,0.2-3.69,0.39c-4.3,0.64-4.24,0.66-3.95-3.87c0.12-1.92-0.02-3.85-0.04-5.78c-0.02-1.98-0.86-3.04-2.98-2.95
		c-2.06,0.09-4.13,0-6.19,0.07c-4.06,0.14-3.99,0.17-3.69-4.09c0.16-2.32,0.74-4.6,0.38-6.99c-0.23-1.53-0.8-2.19-2.34-2.17
		c-2.75,0.04-5.51,0.02-8.26-0.04c-0.87-0.02-2.08,0.35-2.23-1.12c-0.11-1.04,0.09-1.97,1.43-2.02c1.23-0.04,1.65-0.74,1.67-1.88
		c0.01-0.69,0.25-1.22,0.89-1.7c2.29-1.69,2.95-3.47,2.2-5.69c-0.73-2.17-2.26-3.32-4.58-3.38c-2.06-0.05-4.13-0.15-6.19-0.23
		c-0.86-0.03-1.68-0.17-1.86-1.22c-0.15-0.91,0.08-1.71,1.12-1.84c1.12-0.14,1.76-0.62,1.85-1.79c0.04-0.54,0.18-1.05,0.82-1.28
		c0.92-0.33,2.24,0.13,2.45-1.56c0.3-2.49,0.53-4.98-0.38-7.34c-0.55-1.41-2.19-0.79-3.33-1.11c-1.2-0.33-3.14,0.38-3.1-1.73
		c0.03-1.7-0.87-4.13,2.15-4.48c0.76-0.09,1.38-0.47,1.4-1.25c0.03-1.42,0.85-1.74,2.04-2.08c1.38-0.41,1.52-2.03,0.71-2.62
		c-1.35-0.98-2.56-1.83-2.83-3.57c-2.69,0.29-2.59-3.77-5.37-3.44c-0.76,0.09-1.17-0.61-1.14-1.4c0.03-0.96,0.49-1.54,1.47-1.65
		c0.96-0.1,1.91-0.24,2.87-0.28c1.19-0.06,2.2-0.24,2.25-1.76c0.02-0.58,0.36-1.21,0.92-1.22c3.56-0.12,2.16-2.74,2.32-4.55
		c0.06-0.71-0.16-1.53-0.96-1.58c-1.49-0.1-2.24-0.69-2.32-2.24c-0.06-1.11-1.07-1.06-1.86-1.2c-1-0.18-1.32-0.85-1.34-1.77
		c-0.02-1.02,0.52-1.65,1.47-1.56c3.13,0.33,4.73-2.9,7.58-3.19c0.23-0.02,0.49-0.24,0.66-0.43c1.46-1.72,0.39-8.34-1.69-9.15
		c-1.45-0.56-1.49-1.39-1.39-2.51c0.11-1.3,1.12-1.41,2.11-1.42c1.1-0.01,2.27-0.2,3.29,0.08c3.38,0.95,4.23-2.85,6.79-3.52
		c0.77-0.2,0.49-5.07-0.5-5.73c-1.25-0.84-1.35-1.98-1.61-3.16c-0.56-2.59-0.18-3.94,3.12-3.4c2.15,0.35,4.4,0.03,6.59,0.2
		c2.22,0.18,2.82-0.87,2.96-2.88c0.18-2.64-0.15-5.23-0.22-7.84c-0.07-2.54,0.31-2.89,2.89-2.47c1.63,0.27,3.41-0.05,4.4,2.23
		c0.6,1.38,3.35,1.21,4.04,0.27c1.5-2.03,4.55-3.28,3.99-6.58c-0.07-0.4-0.05-0.83-0.01-1.24c0.11-1.4-0.75-3.14,1.03-4.02
		c1.46-0.72,4.37,0.35,5.6,2.12c1.59,2.29,3.74,0.99,5.62,1c1.63,0.01,1.16-1.62,1.27-2.59c0.24-2.1,0.94-3.96,2.07-5.73
		c1.58-2.48,3.28-2.52,4.72,0.08c1.32,2.39,3.6,2.03,5.68,2.19c1.79,0.14,2.6-0.76,3.65-2.41c1.34-2.12,3.14-3.83,3.19-6.58
		c0.01-0.79,0.88-0.94,1.6-0.95c0.84-0.02,1.44,0.5,1.29,1.23c-0.75,3.87,3.37,4.77,4.57,7.52c0.73,1.65,4.28,0.71,5.1-1.18
		c0.21-0.49,0.18-1.2,0.78-1.34c2.41-0.57,2.65-2.49,2.86-4.43c0.11-0.99,0.13-2,1.52-1.95c0.98,0.04,1.32,0.65,1.61,1.54
		c0.81,2.44,3.38,4.12,3.03,7.1c-0.07,0.57,0.48,0.95,1.09,1.03c2.33,0.28,4.65,0.53,6.89-0.52c0.69-0.32,1.06-0.7,1.26-1.45
		c0.24-0.92,0.61-1.83,1.05-2.67c0.79-1.49,2.34-1.3,3.65-1.37c1.57-0.08,1.51,1.34,1.68,2.38c0.2,1.22,0.24,2.46,0.34,3.7
		c0.28,3.48,0.29,3.42,3.81,3.92c1.57,0.22,2.99-0.4,4.49-0.43c1.07-0.01,1.91-0.38,1.99-1.61c0.09-1.33,1.11-1.34,2.04-1.59
		c3.2-0.87,3.48-0.65,3.58,2.75c0.08,2.62,0.21,5.23,0.29,7.85c0.03,1.2,0.62,1.69,1.79,1.75c1.93,0.1,3.85,0.19,5.77-0.08
		c0.67-0.1,1.52-0.08,1.65-0.91c0.48-3.07,2.9-1.96,4.57-2.03c1.68-0.08,2.5,1.84,1.17,2.82c-3.36,2.47-1.26,5.82-1.75,8.72
		c-0.13,0.78,0.59,1.04,1.29,1.3C797.64,247.1,800.37,246.96,803.11,246.42z"/>
</g>
</svg>
