<?xml version="1.0" standalone="no"?>
<!DOCTYPE svg PUBLIC "-//W3C//DTD SVG 20010904//EN"
 "http://www.w3.org/TR/2001/REC-SVG-20010904/DTD/svg10.dtd">
<svg version="1.0" xmlns="http://www.w3.org/2000/svg"
 width="128.000000pt" height="128.000000pt" viewBox="0 0 128.000000 128.000000"
 preserveAspectRatio="xMidYMid meet">

<g transform="translate(0.000000,128.000000) scale(0.100000,-0.100000)"
fill="#000000" stroke="none">
<path d="M104 1269 c-46 -13 -91 -69 -99 -121 -3 -24 -5 -269 -3 -545 3 -489
4 -502 24 -529 11 -15 33 -37 48 -48 27 -21 38 -21 566 -21 528 0 539 0 566
21 15 11 37 33 48 48 21 27 21 38 21 566 0 528 0 539 -21 566 -11 15 -33 37
-48 48 -27 21 -39 21 -549 23 -298 1 -536 -2 -553 -8z m442 -468 c60 -132 111
-238 114 -236 3 2 48 110 100 239 l94 236 133 0 c152 0 156 -3 93 -65 l-40
-39 0 -291 0 -291 40 -39 c66 -64 64 -65 -149 -65 -105 0 -192 4 -195 8 -3 5
15 28 39 52 l45 44 0 226 0 225 -101 -255 c-56 -140 -103 -263 -106 -273 -3
-9 -13 -17 -23 -17 -13 0 -47 65 -140 268 -68 147 -125 269 -127 271 -1 2 -3
-84 -3 -191 l0 -195 60 -74 60 -74 -146 -3 c-81 -1 -149 -1 -151 2 -3 2 23 39
56 81 l61 76 0 234 0 233 -55 67 c-30 37 -52 71 -49 76 3 5 67 9 143 9 l138 0
109 -239z"/>
</g>
</svg>
