<?xml version="1.0" encoding="UTF-8"?>
<svg version="1.1" xmlns="http://www.w3.org/2000/svg" width="240" height="240">
<path d="M0 0 C0.74443359 0.25168945 1.48886719 0.50337891 2.25585938 0.76269531 C19.51365082 6.7749408 33.57714533 16.79359153 47 29 C51.18927627 25.42566337 53.294918 21.07219689 55.75 16.25 C56.16121094 15.45722656 56.57242188 14.66445313 56.99609375 13.84765625 C58.00418234 11.90181084 59.00519928 9.95266262 60 8 C62.5967879 10.5967879 63.05431225 12.84640636 64.13671875 16.359375 C64.33702698 17.00762238 64.53733521 17.65586975 64.74371338 18.32376099 C65.40036143 20.4632965 66.04517755 22.60612262 66.6875 24.75 C66.90898712 25.48430237 67.13047424 26.21860474 67.3586731 26.97515869 C71.92606014 42.17369263 75.72023721 57.46907651 79 73 C79.28810547 74.28342285 79.28810547 74.28342285 79.58203125 75.59277344 C84.2609407 96.67465362 84.71995344 123.09668973 79 144 C78.77425293 144.82709473 78.54850586 145.65418945 78.31591797 146.50634766 C73.33705997 164.05593933 65.57228569 178.87587696 54 193 C52.91525391 194.34964844 52.91525391 194.34964844 51.80859375 195.7265625 C32.9829787 217.8331223 3.9487194 232.59132381 -25 235 C-58.24032154 236.8154662 -89.01494763 229.70812121 -115 208 C-115.98355469 207.18015625 -116.96710938 206.3603125 -117.98046875 205.515625 C-135.22979482 190.65754326 -147.18777434 171.63420008 -154 150 C-154.62068359 148.13021484 -154.62068359 148.13021484 -155.25390625 146.22265625 C-161.60844246 124.65194278 -160.25025025 97.11527065 -153 76 C-152.77538086 75.31647461 -152.55076172 74.63294922 -152.31933594 73.92871094 C-147.58738295 59.82928186 -139.72308239 47.18520004 -130 36 C-129.25234375 35.10796875 -128.5046875 34.2159375 -127.734375 33.296875 C-121.51369858 26.11299707 -114.74985356 20.4161432 -107 15 C-106.00484375 14.30003906 -105.0096875 13.60007812 -103.984375 12.87890625 C-74.32341495 -6.62887901 -33.57653769 -11.62489163 0 0 Z M58 24 C56.95825306 25.54287884 55.9937241 27.13800326 55.0625 28.75 C43.05211241 48.0409112 23.58826351 61.76621148 2.375 69.375 C1.74368164 69.60155273 1.11236328 69.82810547 0.46191406 70.06152344 C-13.39785643 74.70472111 -27.28100512 75.7486454 -41.74853516 76.58129883 C-56.50219184 77.45367135 -72.45900937 78.51022833 -85.625 85.875 C-86.28048828 86.22304687 -86.93597656 86.57109375 -87.61132812 86.9296875 C-92.44052859 89.54891487 -96.90306596 92.34069301 -101 96 C-101.97453125 96.83724609 -101.97453125 96.83724609 -102.96875 97.69140625 C-114.00106857 107.85386893 -120.84873985 122.0336181 -122 137 C-122.0515625 137.63550781 -122.103125 138.27101563 -122.15625 138.92578125 C-122.70607859 151.45729116 -118.83162917 162.20960224 -111.6875 172.25 C-108.18797653 175.83090774 -104.20860985 179.75321361 -98.97485352 180.15576172 C-96.73082702 179.86858215 -94.6254474 179.3886748 -92.4375 178.8125 C-91.59960938 178.61760986 -90.76171875 178.42271973 -89.8984375 178.22192383 C-86.92286593 177.51586048 -83.96299235 176.75706413 -81 176 C-78.50157589 175.39210275 -76.00286116 174.78539905 -73.50390625 174.1796875 C-42.74811285 166.63604249 -14.41170175 156.88961543 10 136 C10.80824219 135.31421875 11.61648437 134.6284375 12.44921875 133.921875 C27.53800279 120.75175894 41.56403561 104.30789317 48 85 C44.53389971 109.86030556 29.7654427 130.18869792 13 148 C12.45214844 148.60070312 11.90429688 149.20140625 11.33984375 149.8203125 C-0.20808574 162.02082768 -15.23307953 171.36655874 -30.63671875 177.8359375 C-31.45171341 178.17826416 -32.26670807 178.52059082 -33.10639954 178.87329102 C-42.77414479 182.84462165 -52.70586784 185.92831764 -62.6875 189 C-64.57644011 189.58898416 -66.46511346 190.17882457 -68.35351562 190.76953125 C-72.899348 192.18951673 -77.44856625 193.59807752 -82 195 C-82 195.33 -82 195.66 -82 196 C-72.67975885 196.04677808 -63.35955941 196.0820963 -54.03922558 196.10362434 C-49.70929442 196.11396772 -45.3794448 196.12794925 -41.04956055 196.15087891 C9.39899119 197.45264784 9.39899119 197.45264784 53 175 C70.64900967 157.51471028 76.17128458 133.84579724 76.3125 109.6875 C76.33045511 80.39871932 69.31512571 51.64488919 60 24 C59.34 24 58.68 24 58 24 Z M-119 192 C-120.04922632 194.75495178 -120.37097793 197.07152267 -120 200 C-117.61691389 204.09592925 -116.07717219 205.64747092 -111.5625 207.125 C-107.19570474 206.97177911 -105.32083564 205.76736304 -102 203 C-100.42544261 199.85088521 -100.65200882 197.47991184 -101 194 C-102.82668938 190.42462844 -102.82668938 190.42462844 -106 188 C-111.26737548 186.60881817 -115.49375347 187.75000421 -119 192 Z " fill="#6CB33E" transform="translate(158,5)"/>
</svg>
