<svg xmlns="http://www.w3.org/2000/svg" width="291.3" height="291.301" viewBox="0 0 291.3 291.301">
  <g id="Raggruppa_724" data-name="Raggruppa 724" transform="translate(15227.66 20587.734)">
    <g id="Raggruppa_721" data-name="Raggruppa 721">
      <g id="Raggruppa_717" data-name="Raggruppa 717" transform="translate(-16420 -21274.434)" opacity="0">
        <path id="Tracciato_757" data-name="Tracciato 757" d="M465.99,291.3c-80.31,0-145.65-65.34-145.65-145.65S385.67,0,465.99,0,611.64,65.34,611.64,145.65,546.3,291.3,465.99,291.3Zm0-283.3c-75.9,0-137.65,61.75-137.65,137.65S390.09,283.3,465.99,283.3s137.65-61.75,137.65-137.65S541.89,8,465.99,8Z" transform="translate(872 686.699)" fill="#fff"/>
      </g>
      <g id="Raggruppa_720" data-name="Raggruppa 720" transform="translate(-15548 -20587.734)">
        <path id="Tracciato_705" data-name="Tracciato 705" d="M351.06,144.34c-4.03-.23-6.29-2.26-6.09-5.79a4.652,4.652,0,0,1,4.76-4.8l-.12,2.05a2.963,2.963,0,0,0-2.97,2.86c-.12,2.17,1.54,3.48,4.52,3.64,3,.17,4.78-.94,4.9-3.12a2.984,2.984,0,0,0-2.63-3.2l.11-2.03a4.641,4.641,0,0,1,4.19,5.3c-.2,3.54-2.7,5.29-6.67,5.07Z" fill="#fff"/>
        <path id="Tracciato_706" data-name="Tracciato 706" d="M351.89,131.4c-3.96-.68-5.98-2.96-5.38-6.46s3.25-4.96,7.22-4.28c3.94.68,5.99,2.91,5.38,6.44-.6,3.51-3.28,4.97-7.22,4.29Zm5.64-4.57c.39-2.27-1.18-3.67-4.14-4.18-3-.52-4.91.31-5.3,2.56s1.16,3.69,4.14,4.2C355.23,129.93,357.15,129.05,357.53,126.83Z" fill="#fff"/>
        <path id="Tracciato_707" data-name="Tracciato 707" d="M348.46,115.85l.91-2.94,9.97-.12.69.1.08-.28-.62-.31-8.16-5.73.88-2.86,11.87,3.67-.52,1.69-9.16-2.93-.72-.22-.08.28.62.32,8.31,5.91-.63,2.03-10.19.18-.69-.1-.09.29.72.22,9.21,2.76-.53,1.7-11.87-3.67Z" fill="#fff"/>
        <path id="Tracciato_708" data-name="Tracciato 708" d="M353.8,99.95l3.27-7.37,1.43.64-2.54,5.71,3.44,1.53,2.17-4.89,1.37.61-2.17,4.88,3.69,1.64,2.57-5.79,1.43.64L365.15,105,353.8,99.96Z" fill="#fff"/>
        <path id="Tracciato_709" data-name="Tracciato 709" d="M360.9,85.39l2.55-4.09c1.5-2.41,3.14-2.86,4.67-1.91a2.581,2.581,0,0,1,1.18,3.22l-.38.51.17.1a2.993,2.993,0,0,1,4.26-.91c1.73,1.08,2.21,3.05.6,5.63l-2.5,4.02-10.54-6.57Zm6.88-1.03c.93-1.5.64-2.53-.37-3.16-.98-.61-1.97-.44-2.93,1.1l-1.39,2.23,3.3,2.06Zm4.84,3.02c1.07-1.71.79-2.8-.39-3.53-1.15-.71-2.25-.51-3.32,1.21l-1.39,2.23,3.71,2.31,1.39-2.23Z" fill="#fff"/>
        <path id="Tracciato_710" data-name="Tracciato 710" d="M376.66,83.07l-7.02-10.72,1.68-2.16,12.11,4.19.23.18-1.15,1.48-2.49-.87-3.45,4.43,1.45,2.21-1.13,1.45-.23-.18Zm1.84-8.45-6-2.1-.73-.38-.17.21.56.6,3.5,5.31,2.83-3.63Z" fill="#fff"/>
        <path id="Tracciato_711" data-name="Tracciato 711" d="M379.62,69.81c-2.91-2.8-3.29-5.82-.85-8.36a4.665,4.665,0,0,1,6.74-.54l-1.42,1.48a2.966,2.966,0,0,0-4.12.23c-1.51,1.57-1.1,3.64,1.05,5.71,2.17,2.08,4.23,2.4,5.75.83a2.975,2.975,0,0,0,.09-4.14l1.41-1.47a4.64,4.64,0,0,1-.28,6.75c-2.46,2.55-5.49,2.26-8.36-.5Z" fill="#fff"/>
        <path id="Tracciato_712" data-name="Tracciato 712" d="M385.01,55.57l1.49-1.25,3.62,4.32.18-.15-.14-.4.44-7.21,1.72-1.45.21.25-.47,8.1,8.06.92.2.23-1.7,1.42-7.16-.72-.36-.21-.18.15,3.56,4.25-1.49,1.25-7.98-9.52Z" fill="#fff"/>
        <path id="Tracciato_713" data-name="Tracciato 713" d="M408.85,46.95l-4.88,2.99,2.81,4.57-1.66,1.02-6.5-10.58,1.66-1.02,2.82,4.6,4.88-2.99-2.82-4.6,1.66-1.02,6.5,10.58-1.66,1.02Z" fill="#fff"/>
        <path id="Tracciato_714" data-name="Tracciato 714" d="M412.68,43.76c-1.69-3.64-.96-6.6,2.25-8.09s5.92-.15,7.62,3.51c1.68,3.62,1.01,6.58-2.24,8.09-3.23,1.5-5.96.13-7.64-3.5Zm6.96,2.04c2.09-.97,2.35-3.06,1.08-5.78-1.28-2.76-3.05-3.87-5.12-2.9s-2.38,3.05-1.1,5.79c1.28,2.76,3.09,3.84,5.13,2.89Z" fill="#fff"/>
        <path id="Tracciato_715" data-name="Tracciato 715" d="M423.46,32.11l2.94-.93,5.77,8.12.31.62.27-.09-.1-.68.06-9.97,2.85-.9,3.74,11.84-1.68.53-2.81-9.19-.23-.72-.27.09.08.69-.12,10.19-2.03.64-5.95-8.28-.31-.62-.29.09.23.72,2.98,9.14-1.7.54L423.46,32.1Z" fill="#fff"/>
        <path id="Tracciato_716" data-name="Tracciato 716" d="M439.61,27.43l7.92-1.5.29,1.54-6.14,1.17.7,3.7,5.25-1,.28,1.47-5.25,1,.75,3.96,6.23-1.18.29,1.54-8.01,1.52-2.32-12.2Z" fill="#fff"/>
        <path id="Tracciato_717" data-name="Tracciato 717" d="M455.53,31.29a1.855,1.855,0,1,1,1.99,1.75A1.759,1.759,0,0,1,455.53,31.29Z" fill="#fff"/>
        <path id="Tracciato_718" data-name="Tracciato 718" d="M466.23,30.72c.19-4.03,2.2-6.31,5.73-6.15a4.656,4.656,0,0,1,4.84,4.71l-2.05-.1a2.969,2.969,0,0,0-2.89-2.95c-2.17-.1-3.46,1.57-3.6,4.55-.14,3,.98,4.77,3.16,4.87a2.969,2.969,0,0,0,3.17-2.66l2.03.09a4.642,4.642,0,0,1-5.26,4.24c-3.54-.17-5.32-2.64-5.13-6.62Z" fill="#fff"/>
        <path id="Tracciato_719" data-name="Tracciato 719" d="M479.18,31.44c.64-3.96,2.91-6,6.41-5.43s4.99,3.2,4.34,7.18c-.64,3.94-2.85,6.01-6.39,5.43C480.02,38.05,478.54,35.38,479.18,31.44Zm4.61,5.6c2.27.37,3.66-1.21,4.14-4.18.49-3-.35-4.91-2.61-5.27-2.24-.36-3.67,1.19-4.16,4.17-.49,3,.41,4.92,2.62,5.28Z" fill="#fff"/>
        <path id="Tracciato_720" data-name="Tracciato 720" d="M494.67,27.85l2.95.88.21,9.96-.09.69.28.08.3-.62,5.65-8.21,2.86.86-3.56,11.9-1.69-.5,2.84-9.18.22-.72-.28-.08-.32.62-5.83,8.36-2.03-.61-.28-10.19.09-.69-.29-.09-.22.72-2.67,9.23-1.71-.51,3.56-11.9Z" fill="#fff"/>
        <path id="Tracciato_721" data-name="Tracciato 721" d="M510.64,33.05l7.4,3.21-.62,1.44-5.73-2.48-1.5,3.45,4.9,2.12-.59,1.37-4.9-2.12-1.6,3.7,5.81,2.52-.62,1.44-7.48-3.24,4.94-11.39Z" fill="#fff"/>
        <path id="Tracciato_722" data-name="Tracciato 722" d="M525.26,40l4.12,2.51c2.43,1.48,2.89,3.11,1.95,4.65a2.578,2.578,0,0,1-3.2,1.21l-.51-.37-.1.17a2.989,2.989,0,0,1,.95,4.25c-1.06,1.74-3.03,2.24-5.63.66l-4.04-2.46,6.46-10.6Zm-1.87,11.74c1.72,1.05,2.8.76,3.52-.42.7-1.15.49-2.25-1.25-3.31l-2.24-1.37-2.28,3.73,2.24,1.37Zm2.97-4.87c1.51.92,2.53.62,3.15-.4.6-.98.42-1.98-1.13-2.92l-2.24-1.37-2.02,3.32Z" fill="#fff"/>
        <path id="Tracciato_723" data-name="Tracciato 723" d="M527.74,55.75l10.66-7.12,2.17,1.66-4.09,12.15-.17.23-1.49-1.14.85-2.5-4.46-3.41-2.19,1.47-1.46-1.12.17-.23Zm8.47,1.76,2.05-6.03.38-.73-.21-.16-.59.57-5.28,3.55,3.66,2.8Z" fill="#fff"/>
        <path id="Tracciato_724" data-name="Tracciato 724" d="M541.02,58.58c2.77-2.93,5.79-3.35,8.35-.93a4.657,4.657,0,0,1,.6,6.73l-1.49-1.41a2.976,2.976,0,0,0-.27-4.12c-1.58-1.5-3.65-1.07-5.7,1.11s-2.36,4.26-.78,5.75a2.977,2.977,0,0,0,4.14.05l1.48,1.4a4.658,4.658,0,0,1-6.76-.21c-2.58-2.43-2.31-5.47.42-8.37Z" fill="#fff"/>
        <path id="Tracciato_725" data-name="Tracciato 725" d="M555.32,63.85l1.26,1.48-4.28,3.66.15.18.39-.15,7.21.38,1.46,1.71-.25.21-8.1-.4-.85,8.07-.23.2-1.44-1.68.65-7.16.21-.37-.15-.18-4.22,3.6-1.26-1.48,9.44-8.07Z" fill="#fff"/>
        <path id="Tracciato_726" data-name="Tracciato 726" d="M564.16,87.61l-3.04-4.85-4.55,2.85-1.03-1.65,10.53-6.6,1.03,1.65-4.58,2.87,3.04,4.85,4.58-2.87,1.03,1.65-10.53,6.6-1.03-1.65Z" fill="#fff"/>
        <path id="Tracciato_727" data-name="Tracciato 727" d="M567.36,91.38c3.62-1.73,6.59-1.03,8.12,2.17s.21,5.92-3.43,7.66c-3.61,1.72-6.57,1.08-8.11-2.16-1.53-3.22-.19-5.95,3.42-7.68Zm-1.97,6.99c.99,2.08,3.08,2.32,5.8,1.03,2.75-1.31,3.83-3.08,2.85-5.15-.98-2.05-3.07-2.34-5.8-1.04-2.75,1.31-3.81,3.13-2.84,5.17Z" fill="#fff"/>
        <path id="Tracciato_728" data-name="Tracciato 728" d="M579.13,102.07l.96,2.93-8.07,5.85-.62.31.09.27.68-.11,9.97-.03.93,2.84-11.81,3.85-.55-1.68,9.17-2.9.72-.23-.09-.27-.69.09-10.2-.03-.66-2.02,8.22-6.04.62-.31-.09-.29-.72.23-9.11,3.07-.55-1.69,11.81-3.85Z" fill="#fff"/>
        <path id="Tracciato_729" data-name="Tracciato 729" d="M583.96,118.17l1.58,7.91-1.54.31-1.22-6.13-3.69.74,1.05,5.24-1.46.29-1.05-5.24-3.96.79,1.24,6.21-1.54.31-1.6-8,12.18-2.43Z" fill="#fff"/>
        <path id="Tracciato_730" data-name="Tracciato 730" d="M580.25,134.12a1.852,1.852,0,1,1-1.73,2A1.756,1.756,0,0,1,580.25,134.12Z" fill="#fff"/>
        <path id="Tracciato_731" data-name="Tracciato 731" d="M580.92,144.84c4.03.15,6.33,2.15,6.2,5.67a4.666,4.666,0,0,1-4.67,4.89l.08-2.05a2.967,2.967,0,0,0,2.92-2.92c.08-2.18-1.6-3.45-4.59-3.56s-4.76,1.03-4.84,3.21a2.968,2.968,0,0,0,2.69,3.14l-.08,2.03a4.646,4.646,0,0,1-4.29-5.22c.13-3.54,2.6-5.34,6.57-5.2Z" fill="#fff"/>
        <path id="Tracciato_732" data-name="Tracciato 732" d="M580.32,157.79c3.97.61,6.03,2.86,5.49,6.36s-3.16,5.02-7.14,4.4c-3.95-.61-6.04-2.8-5.49-6.34C573.72,158.69,576.37,157.18,580.32,157.79Zm-5.56,4.66c-.35,2.28,1.24,3.65,4.21,4.11,3.01.46,4.9-.39,5.25-2.65.34-2.24-1.22-3.67-4.21-4.12-3.01-.46-4.91.45-5.25,2.67Z" fill="#fff"/>
        <path id="Tracciato_733" data-name="Tracciato 733" d="M584.04,173.23l-.86,2.96-9.96.3-.69-.09-.08.28.63.29,8.26,5.58-.83,2.87-11.93-3.45.49-1.69,9.21,2.76.73.21.08-.28-.62-.31-8.42-5.75.59-2.04,10.19-.37.69.09.08-.29-.73-.21-9.26-2.59.5-1.71,11.93,3.45Z" fill="#fff"/>
        <path id="Tracciato_734" data-name="Tracciato 734" d="M579,189.25l-3.14,7.43-1.44-.61,2.43-5.76-3.47-1.46-2.08,4.93-1.38-.58,2.08-4.93-3.72-1.57-2.47,5.84-1.44-.61,3.17-7.51,11.44,4.83Z" fill="#fff"/>
        <path id="Tracciato_735" data-name="Tracciato 735" d="M572.19,203.94l-2.47,4.14c-1.46,2.44-3.08,2.92-4.63,1.99a2.577,2.577,0,0,1-1.24-3.19l.37-.51-.17-.1a2.988,2.988,0,0,1-4.24.99c-1.75-1.04-2.27-3.01-.71-5.62l2.43-4.07,10.67,6.37Zm-11.76-1.76c-1.03,1.73-.74,2.81.45,3.52,1.16.69,2.26.47,3.3-1.28l1.35-2.26-3.76-2.24-1.35,2.26Zm4.9,2.93c-.9,1.51-.59,2.54.43,3.15.99.59,1.98.41,2.91-1.15l1.35-2.26-3.34-1.99-1.35,2.26Z" fill="#fff"/>
        <path id="Tracciato_736" data-name="Tracciato 736" d="M556.45,206.57l7.21,10.59-1.64,2.19-12.18-3.97-.23-.17,1.12-1.5,2.51.83,3.37-4.49-1.49-2.18,1.1-1.47Zm-1.68,8.48,6.04,1.99.73.37.16-.22-.57-.59-3.6-5.24-2.77,3.68Z" fill="#fff"/>
        <path id="Tracciato_737" data-name="Tracciato 737" d="M553.74,219.88c2.96,2.74,3.4,5.75,1,8.34a4.661,4.661,0,0,1-6.73.66l1.4-1.5a2.967,2.967,0,0,0,4.12-.31c1.48-1.6,1.03-3.66-1.16-5.69s-4.28-2.32-5.76-.72a2.959,2.959,0,0,0,0,4.14l-1.38,1.49a4.656,4.656,0,0,1,.15-6.76c2.41-2.6,5.45-2.36,8.37.35Z" fill="#fff"/>
        <path id="Tracciato_738" data-name="Tracciato 738" d="M548.6,234.22l-1.47,1.28-3.7-4.25-.18.15.15.39-.31,7.21-1.7,1.48-.21-.24.32-8.1-8.07-.78-.2-.23,1.67-1.45,7.17.59.37.2.18-.15-3.64-4.18,1.47-1.28,8.15,9.37Z" fill="#fff"/>
        <path id="Tracciato_739" data-name="Tracciato 739" d="M524.94,243.27l4.82-3.09-2.89-4.52,1.64-1.05,6.7,10.46-1.64,1.05-2.91-4.55-4.82,3.09,2.91,4.55-1.64,1.05-6.7-10.46,1.64-1.05Z" fill="#fff"/>
        <path id="Tracciato_740" data-name="Tracciato 740" d="M521.18,246.52c1.76,3.61,1.09,6.58-2.1,8.13s-5.92.26-7.69-3.36c-1.75-3.59-1.13-6.55,2.08-8.12s5.95-.24,7.7,3.35Zm-7-1.91c-2.07,1.01-2.29,3.1-.97,5.8,1.33,2.73,3.12,3.8,5.17,2.8s2.32-3.09.99-5.81-3.17-3.78-5.19-2.8Z" fill="#fff"/>
        <path id="Tracciato_741" data-name="Tracciato 741" d="M510.6,258.38l-2.92.98-5.92-8.02-.32-.61-.27.09.12.68.12,9.97-2.83.95-3.96-11.77,1.67-.56,2.98,9.14.24.72.27-.09-.1-.69-.07-10.19,2.01-.68,6.11,8.16.32.61.29-.1-.24-.72-3.15-9.08,1.69-.57,3.96,11.77Z" fill="#fff"/>
        <path id="Tracciato_742" data-name="Tracciato 742" d="M494.56,263.36l-7.9,1.65-.32-1.53,6.12-1.28-.77-3.68-5.23,1.09-.3-1.46,5.23-1.09-.82-3.95-6.2,1.29-.32-1.53,7.98-1.67,2.54,12.16Z" fill="#fff"/>
        <path id="Tracciato_743" data-name="Tracciato 743" d="M478.58,259.8a1.75,1.75,0,0,1-1.67,2.05,1.769,1.769,0,0,1-2.02-1.71,1.853,1.853,0,1,1,3.69-.34Z" fill="#fff"/>
        <path id="Tracciato_744" data-name="Tracciato 744" d="M467.88,260.57c-.11,4.03-2.09,6.35-5.61,6.25a4.653,4.653,0,0,1-4.93-4.62l2.05.06a2.97,2.97,0,0,0,2.94,2.89c2.18.06,3.43-1.63,3.51-4.62s-1.07-4.75-3.25-4.81a2.976,2.976,0,0,0-3.12,2.72l-2.03-.06a4.655,4.655,0,0,1,5.18-4.34c3.54.1,5.37,2.54,5.25,6.52Z" fill="#fff"/>
        <path id="Tracciato_745" data-name="Tracciato 745" d="M454.92,260.09c-.57,3.97-2.8,6.06-6.31,5.55s-5.05-3.11-4.47-7.1c.57-3.96,2.75-6.06,6.29-5.55s5.06,3.15,4.49,7.1Zm-4.72-5.52c-2.28-.33-3.64,1.28-4.07,4.25-.43,3.01.44,4.9,2.71,5.23,2.25.32,3.66-1.26,4.09-4.25.43-3.01-.49-4.91-2.72-5.23Z" fill="#fff"/>
        <path id="Tracciato_746" data-name="Tracciato 746" d="M439.51,263.96l-2.96-.83-.4-9.96.08-.69-.28-.08-.29.63-5.5,8.31-2.88-.8,3.34-11.96,1.7.47-2.67,9.23-.2.73.28.08.3-.62L435.7,250l2.04.57.47,10.18-.08.69.29.08.2-.73,2.5-9.28,1.72.48-3.34,11.96Z" fill="#fff"/>
        <path id="Tracciato_747" data-name="Tracciato 747" d="M423.44,259.07,415.98,256l.6-1.45,5.78,2.38,1.43-3.48-4.94-2.03.57-1.38,4.94,2.03,1.54-3.73-5.86-2.41.6-1.45,7.54,3.1-4.73,11.49Z" fill="#fff"/>
        <path id="Tracciato_748" data-name="Tracciato 748" d="M408.68,252.38l-4.16-2.44c-2.45-1.44-2.94-3.06-2.04-4.61a2.582,2.582,0,0,1,3.18-1.27l.52.37.1-.17a3,3,0,0,1-1.03-4.23c1.03-1.76,2.99-2.29,5.62-.76l4.08,2.39-6.27,10.72Zm-1.23-6.85c-1.52-.89-2.54-.57-3.14.45-.58.99-.39,1.98,1.18,2.9l2.27,1.33,1.96-3.35-2.27-1.33Zm2.88-4.92c-1.74-1.02-2.82-.71-3.52.49-.68,1.17-.45,2.26,1.31,3.29l2.27,1.33,2.21-3.77-2.27-1.33Z" fill="#fff"/>
        <path id="Tracciato_749" data-name="Tracciato 749" d="M405.91,236.68,395.39,244l-2.2-1.62,3.86-12.22.17-.23,1.51,1.11-.8,2.52,4.52,3.33,2.16-1.51,1.48,1.09-.17.23Zm-8.5-1.6-1.93,6.06-.36.74.22.16.58-.58,5.21-3.65-3.71-2.73Z" fill="#fff"/>
        <path id="Tracciato_750" data-name="Tracciato 750" d="M392.57,234.08c-2.71,2.98-5.72,3.45-8.33,1.08a4.663,4.663,0,0,1-.72-6.72l1.52,1.38a2.964,2.964,0,0,0,.35,4.11c1.61,1.47,3.66,1,5.68-1.21s2.28-4.3.67-5.76a2.97,2.97,0,0,0-4.14.03l-1.5-1.37a4.646,4.646,0,0,1,6.76.09c2.62,2.39,2.41,5.43-.27,8.37Z" fill="#fff"/>
        <path id="Tracciato_751" data-name="Tracciato 751" d="M378.19,229.08l-1.29-1.46,4.22-3.73-.16-.18-.39.15-7.21-.25-1.49-1.68.24-.21,8.11.25.71-8.08.23-.2,1.47,1.66-.52,7.17-.2.37.16.17,4.15-3.67,1.29,1.46-9.3,8.23Z" fill="#fff"/>
        <path id="Tracciato_752" data-name="Tracciato 752" d="M368.92,205.5l3.13,4.79,4.49-2.93,1.06,1.63-10.4,6.79-1.06-1.63,4.52-2.95-3.13-4.79-4.52,2.95-1.06-1.63,10.4-6.79,1.06,1.63Z" fill="#fff"/>
        <path id="Tracciato_753" data-name="Tracciato 753" d="M365.64,201.79c-3.59,1.79-6.57,1.15-8.15-2.02s-.32-5.92,3.29-7.72c3.57-1.79,6.54-1.2,8.14,2.01,1.59,3.19.29,5.95-3.28,7.73Zm1.85-7.02c-1.03-2.06-3.12-2.26-5.81-.92-2.72,1.36-3.78,3.15-2.75,5.2,1.01,2.03,3.11,2.29,5.82.94s3.75-3.2,2.75-5.21Z" fill="#fff"/>
        <path id="Tracciato_754" data-name="Tracciato 754" d="M353.66,191.3l-1.01-2.91,7.96-6,.61-.33-.09-.27-.68.12-9.97.21-.98-2.82,11.74-4.06.58,1.67-9.12,3.06-.71.25.09.27.69-.1,10.2-.16.69,2.01-8.11,6.18-.61.33.1.29.71-.25,9.06-3.23.58,1.68-11.74,4.06Z" fill="#fff"/>
        <path id="Tracciato_755" data-name="Tracciato 755" d="M348.55,175.33l-1.72-7.88,1.53-.33,1.33,6.1,3.67-.8-1.14-5.22,1.46-.32,1.14,5.22,3.94-.86-1.35-6.19,1.53-.33,1.74,7.96-12.13,2.65Z" fill="#fff"/>
        <path id="Tracciato_756" data-name="Tracciato 756" d="M351.96,159.31a1.752,1.752,0,0,1-2.07-1.65,1.776,1.776,0,0,1,1.69-2.04,1.855,1.855,0,1,1,.38,3.69Z" fill="#fff"/>
      </g>
    </g>
  </g>
</svg>
