<svg xmlns="http://www.w3.org/2000/svg" width="291.3" height="291.301" viewBox="0 0 291.3 291.301">
  <g id="Raggruppa_723" data-name="Raggruppa 723" transform="translate(15227.66 21000.734)">
    <g id="Raggruppa_722" data-name="Raggruppa 722" transform="translate(-16420 -21687.434)">
      <path id="Tracciato_704" data-name="Tracciato 704" d="M465.98,203.71a53.672,53.672,0,0,1-53.61-53.61h7.69a45.92,45.92,0,1,0,91.84,0h7.69a53.672,53.672,0,0,1-53.61,53.61Z" transform="translate(872 686.699)" fill="#fff"/>
      <g id="Raggruppa_677" data-name="Raggruppa 677" transform="translate(872 686.699)">
        <line id="Linea_38" data-name="Linea 38" x1="20.71" y2="20.71" transform="translate(407.9 102.06)" fill="none" stroke="#fff" stroke-miterlimit="10" stroke-width="7"/>
        <line id="Linea_39" data-name="Linea 39" x1="20.71" y1="20.71" transform="translate(407.9 102.06)" fill="none" stroke="#fff" stroke-miterlimit="10" stroke-width="7"/>
      </g>
      <g id="Raggruppa_717" data-name="Raggruppa 717">
        <g id="Raggruppa_676" data-name="Raggruppa 676" transform="translate(872 686.699)">
          <line id="Linea_36" data-name="Linea 36" x1="20.71" y2="20.71" transform="translate(503.96 102.06)" fill="none" stroke="#fff" stroke-miterlimit="10" stroke-width="7"/>
          <line id="Linea_37" data-name="Linea 37" x1="20.71" y1="20.71" transform="translate(503.96 102.06)" fill="none" stroke="#fff" stroke-miterlimit="10" stroke-width="7"/>
        </g>
        <path id="Tracciato_757" data-name="Tracciato 757" d="M465.99,291.3c-80.31,0-145.65-65.34-145.65-145.65S385.67,0,465.99,0,611.64,65.34,611.64,145.65,546.3,291.3,465.99,291.3Zm0-283.3c-75.9,0-137.65,61.75-137.65,137.65S390.09,283.3,465.99,283.3s137.65-61.75,137.65-137.65S541.89,8,465.99,8Z" transform="translate(872 686.699)" fill="#fff"/>
      </g>
    </g>
  </g>
</svg>
