<svg xmlns="http://www.w3.org/2000/svg" width="291.3" height="291.3" viewBox="0 0 291.3 291.3">
  <g id="Raggruppa_716" data-name="Raggruppa 716" transform="translate(-872 -686.699)">
    <path id="Tracciato_703" data-name="Tracciato 703" d="M130.12,236.74v-7.25c30.71-.34,30.71-4.49,30.71-26.91V189.47H68.71v-7.59L169.8,51.82l.35-1.04h8.62V182.23l35.54-1.38v8.62H178.77v13.11c0,22.42,0,26.57,29.33,26.91v7.25H130.12Zm30.71-54.51V77.01L80.79,180.86l80.04,1.38Z" transform="translate(872 686.699)" fill="#fff"/>
    <path id="Tracciato_758" data-name="Tracciato 758" d="M145.65,291.3C65.34,291.3,0,225.96,0,145.65S65.34,0,145.65,0,291.3,65.34,291.3,145.65,225.96,291.3,145.65,291.3Zm0-283.3C69.75,8,8,69.75,8,145.65S69.75,283.3,145.65,283.3,283.3,221.55,283.3,145.65,221.55,8,145.65,8Z" transform="translate(872 686.699)" fill="#fff"/>
  </g>
</svg>
