<?xml version="1.0" standalone="no"?>
<!DOCTYPE svg PUBLIC "-//W3C//DTD SVG 20010904//EN"
 "http://www.w3.org/TR/2001/REC-SVG-20010904/DTD/svg10.dtd">
<svg version="1.0" xmlns="http://www.w3.org/2000/svg"
 width="700.000000pt" height="700.000000pt" viewBox="0 0 700.000000 700.000000"
 preserveAspectRatio="xMidYMid meet">
<metadata>
Created by potrace 1.14, written by Peter Selinger 2001-2017
</metadata>
<g transform="translate(0.000000,700.000000) scale(0.100000,-0.100000)"
fill="#000000" stroke="none">
<path d="M3133 6518 c2 -266 7 -499 10 -518 6 -33 12 -81 23 -175 2 -22 6 -58
9 -80 2 -22 7 -62 10 -90 3 -27 8 -67 10 -87 3 -21 7 -55 10 -75 2 -21 7 -63
10 -93 3 -30 10 -91 15 -135 5 -44 12 -105 15 -135 3 -30 8 -64 10 -76 3 -11
7 -52 10 -90 4 -38 8 -80 10 -94 7 -43 14 -102 21 -170 3 -36 7 -72 9 -80 1
-8 6 -49 10 -90 4 -41 9 -83 10 -92 2 -9 6 -43 9 -75 4 -32 8 -74 11 -93 2
-19 7 -60 10 -90 4 -30 8 -66 10 -80 2 -14 7 -53 10 -87 3 -34 8 -72 10 -85 7
-35 16 -158 12 -158 -2 0 -35 39 -73 88 -38 48 -77 96 -86 107 -9 11 -80 99
-158 195 -78 96 -149 184 -158 195 -9 11 -53 65 -97 120 -44 55 -85 107 -92
115 -7 8 -112 139 -234 290 -121 151 -228 284 -237 295 -10 11 -35 42 -57 70
-22 27 -47 59 -57 70 -47 58 -167 207 -192 241 -35 46 -657 674 -667 674 -4 0
-124 -117 -267 -259 l-259 -259 306 -305 c256 -256 340 -333 516 -472 116 -91
302 -239 414 -328 112 -89 220 -175 242 -192 164 -129 498 -394 516 -410 6 -5
117 -93 247 -195 129 -102 235 -189 236 -193 0 -5 -4 -6 -8 -3 -5 3 -37 7 -73
11 -35 3 -80 7 -99 10 -19 2 -60 7 -90 10 -30 3 -71 8 -90 10 -19 2 -64 7
-100 10 -62 5 -85 8 -175 19 -22 3 -69 8 -105 11 -36 3 -76 8 -90 10 -14 2
-51 7 -82 10 -32 3 -84 7 -115 10 -32 3 -69 8 -83 10 -14 2 -54 7 -90 10 -63
6 -77 7 -185 19 -83 10 -127 14 -200 21 -38 4 -81 8 -95 10 -14 2 -52 7 -85
10 -33 3 -76 8 -95 10 -19 2 -62 7 -95 10 -33 3 -76 8 -95 10 -19 3 -60 7 -90
10 -30 3 -75 8 -100 12 -25 4 -260 8 -522 10 l-478 4 0 -370 0 -371 434 0
c370 0 460 3 608 20 95 11 196 23 223 25 28 3 61 8 75 10 14 2 52 7 85 10 62
6 107 12 175 20 87 11 188 22 270 30 36 4 108 12 170 20 19 3 58 7 85 10 28 3
66 7 85 10 19 2 58 7 85 10 28 3 66 7 85 10 19 2 80 9 135 15 105 11 157 17
215 25 19 2 60 7 90 10 73 8 129 15 160 20 14 2 51 6 83 9 31 4 83 9 115 12
36 4 53 3 47 -4 -9 -8 -279 -227 -470 -381 -38 -31 -79 -63 -90 -73 -11 -9
-74 -60 -140 -113 -66 -53 -136 -109 -155 -125 -19 -16 -53 -43 -75 -60 -22
-18 -58 -46 -79 -63 -188 -153 -741 -598 -772 -622 -46 -35 -674 -656 -674
-667 0 -9 509 -518 519 -518 3 0 146 141 317 312 308 310 314 317 650 742 186
235 358 454 382 485 24 31 60 76 80 100 20 24 43 54 51 65 8 12 18 23 21 26 4
3 22 25 41 50 19 25 70 90 114 145 44 55 83 104 87 110 5 5 23 28 40 51 18 22
47 57 63 78 115 147 237 296 241 296 5 0 -2 -111 -11 -170 -2 -14 -6 -54 -10
-90 -11 -117 -25 -240 -30 -280 -2 -14 -7 -56 -10 -95 -3 -38 -8 -81 -10 -95
-2 -14 -7 -56 -11 -95 -4 -38 -8 -81 -9 -95 -2 -14 -6 -56 -10 -95 -3 -38 -8
-81 -10 -95 -2 -14 -7 -52 -10 -85 -3 -33 -8 -76 -10 -95 -3 -19 -7 -64 -10
-100 -3 -36 -8 -76 -10 -90 -2 -14 -7 -54 -10 -90 -4 -36 -8 -76 -10 -90 -2
-14 -7 -58 -10 -99 -4 -41 -8 -82 -10 -90 -2 -9 -6 -52 -10 -96 -4 -44 -8 -91
-10 -105 -2 -14 -7 -52 -10 -85 -4 -33 -9 -76 -12 -95 -4 -19 -8 -252 -10
-517 l-4 -483 371 0 371 0 -4 483 c-2 265 -6 491 -9 502 -3 12 -9 50 -12 86
-4 36 -8 76 -10 90 -4 23 -9 65 -21 184 -3 28 -8 66 -11 86 -2 20 -7 59 -9 85
-3 27 -7 65 -10 84 -4 33 -7 57 -21 185 -3 28 -7 61 -9 75 -2 14 -6 52 -10 85
-3 33 -8 71 -10 85 -3 14 -7 52 -10 84 -3 33 -7 71 -9 85 -3 14 -7 57 -11 94
-3 37 -8 76 -10 85 -1 9 -6 48 -10 85 -3 37 -8 76 -10 85 -3 17 -15 128 -20
187 -4 40 -15 134 -20 165 -2 14 -6 50 -9 80 -4 30 -9 78 -12 105 -9 74 -10
119 -3 125 4 3 84 -92 179 -210 96 -118 185 -229 199 -246 14 -17 33 -40 41
-50 43 -53 186 -231 195 -241 5 -7 15 -18 20 -25 24 -30 181 -224 192 -238 7
-8 45 -55 84 -105 40 -49 129 -160 198 -245 69 -85 135 -166 146 -181 109
-147 282 -340 538 -596 166 -167 305 -303 309 -303 4 0 124 117 266 259 l259
259 -311 310 c-216 214 -355 344 -456 424 -394 312 -748 593 -779 616 -18 15
-68 54 -110 88 -165 133 -584 464 -694 549 -63 50 -116 94 -116 98 -1 8 94 3
179 -9 19 -2 60 -6 90 -9 30 -2 71 -7 90 -9 47 -7 123 -15 190 -21 30 -3 71
-7 90 -10 19 -2 60 -7 90 -10 96 -9 154 -15 190 -20 37 -5 99 -11 190 -20 30
-3 71 -7 90 -10 19 -2 62 -7 95 -10 33 -3 71 -8 85 -10 14 -2 56 -7 94 -10 38
-3 83 -8 100 -10 17 -2 60 -6 96 -10 36 -3 76 -8 90 -10 14 -2 57 -6 95 -10
39 -4 84 -8 100 -11 17 -2 57 -6 90 -9 33 -3 71 -8 85 -10 14 -2 57 -7 97 -10
40 -4 85 -8 100 -10 24 -3 717 -8 856 -6 l47 1 0 370 0 370 -447 -1 c-312 -1
-478 -5 -548 -15 -55 -7 -131 -16 -170 -19 -38 -3 -81 -8 -95 -10 -14 -2 -50
-7 -80 -10 -30 -4 -66 -8 -80 -10 -14 -2 -54 -6 -90 -10 -36 -4 -76 -8 -90
-10 -14 -2 -50 -7 -80 -10 -30 -3 -111 -12 -180 -21 -69 -8 -144 -17 -167 -19
-24 -3 -64 -7 -90 -11 -27 -3 -66 -7 -88 -9 -22 -2 -60 -7 -85 -10 -25 -3 -65
-8 -89 -10 -24 -3 -62 -7 -85 -10 -86 -11 -113 -15 -166 -20 -30 -3 -71 -8
-90 -10 -19 -2 -57 -7 -85 -10 -51 -5 -201 -22 -265 -30 -19 -2 -64 -7 -100
-10 l-65 -6 40 33 c21 18 102 84 180 146 77 63 156 127 175 142 19 16 181 146
360 290 179 144 339 274 357 289 17 14 186 150 375 301 320 256 364 296 661
589 174 174 317 319 317 323 0 4 -116 124 -259 266 l-259 259 -310 -311 c-324
-325 -305 -304 -810 -945 -86 -108 -126 -158 -141 -176 -9 -11 -48 -60 -86
-110 -38 -49 -74 -95 -80 -101 -5 -6 -156 -196 -335 -421 -179 -226 -328 -409
-333 -406 -4 2 -5 8 -3 12 3 3 7 34 11 66 3 33 8 74 10 90 2 17 6 62 10 100 3
39 8 81 10 95 2 14 7 57 10 95 4 39 8 81 10 95 5 37 13 108 30 275 8 83 17
168 20 190 3 22 7 60 9 85 3 25 7 63 10 85 2 22 7 65 10 95 12 122 17 166 21
190 2 14 7 59 11 100 9 107 11 119 17 175 4 28 9 75 12 105 8 79 14 139 19
185 3 22 8 72 12 110 3 39 9 79 12 90 3 11 7 239 9 508 l4 487 -371 0 -371 0
4 -482z"/>
</g>
</svg>
