<svg width="134" height="131" viewBox="0 0 134 131" fill="none" xmlns="http://www.w3.org/2000/svg">
<path d="M75.7004 10.8112L77.9584 13.6029C80.8112 17.1298 85.4792 18.6433 89.8979 17.474L93.4417 16.5363C99.9175 14.8226 106.269 19.4843 106.549 26.1566L106.685 29.4056C106.879 34.0149 109.781 38.0454 114.082 39.6769L117.185 40.8538C123.469 43.2374 125.86 50.8565 122.09 56.4865L120.369 59.0577C117.769 62.9407 117.717 67.9755 120.237 71.8585L121.906 74.4297C125.56 80.0597 123.013 87.6788 116.68 90.0624L113.554 91.2393C109.219 92.8708 106.234 96.9013 105.946 101.511L105.743 104.76C105.326 111.432 98.8786 116.094 92.438 114.38L88.9134 113.442C84.5187 112.273 79.8197 113.786 76.8945 117.313L74.5792 120.105C70.3169 125.244 62.4566 125.244 58.2998 120.105L56.0417 117.313C53.1889 113.786 48.5209 112.273 44.1022 113.442L40.5584 114.38C34.0826 116.094 27.7313 111.432 27.4513 104.76L27.3149 101.511C27.1215 96.9014 24.2187 92.8708 19.9176 91.2393L16.815 90.0624C10.5311 87.6788 8.14056 80.0597 11.9101 74.4297L13.6316 71.8585C16.2314 67.9755 16.2831 62.9407 13.7629 59.0577L12.0941 56.4865C8.44013 50.8565 10.987 43.2374 17.3198 40.8538L20.4466 39.6769C24.7811 38.0454 27.7666 34.0149 28.0546 29.4056L28.2576 26.1566C28.6745 19.4843 35.1215 14.8226 41.5621 16.5363L45.0867 17.474C49.4814 18.6433 54.1804 17.1298 57.1056 13.6029L59.4209 10.8112C63.6832 5.67198 71.5435 5.67198 75.7004 10.8112Z" fill="#D09BF9" stroke="black" stroke-width="1.10753"/>
<path d="M75.9567 16.4942L76.7594 17.496C79.614 21.0585 84.3139 22.5883 88.7581 21.4013L90.0168 21.0651C96.5005 19.3333 102.871 23.9997 103.148 30.6842L103.197 31.8718C103.388 36.4702 106.276 40.4951 110.561 42.136L111.682 42.5651C117.929 44.9569 120.31 52.5295 116.582 58.1487L115.951 59.0998C113.387 62.9635 113.336 67.9539 115.82 71.8176L116.432 72.7688C120.044 78.388 117.508 85.9606 111.212 88.3524L110.083 88.7815C105.763 90.4224 102.793 94.4473 102.508 99.0457L102.434 100.233C102.02 106.918 95.5542 111.584 89.106 109.852L87.8542 109.516C83.4344 108.329 78.703 109.859 75.7754 113.421L74.9522 114.423C70.6881 119.612 62.7697 119.612 58.6121 114.423L57.8094 113.421C54.9549 109.859 50.2549 108.329 45.8108 109.516L44.552 109.852C38.0684 111.584 31.6984 106.918 31.421 100.233L31.3718 99.0457C31.181 94.4473 28.2933 90.4224 24.0077 88.7815L22.8868 88.3523C16.6401 85.9606 14.2591 78.388 17.9871 72.7688L18.6181 71.8176C21.1814 67.9539 21.2326 62.9635 18.7486 59.0998L18.1371 58.1487C14.5244 52.5295 17.0607 44.9569 23.3565 42.5651L24.4862 42.136C28.8055 40.4951 31.7757 36.4702 32.0609 31.8718L32.1345 30.6842C32.549 23.9997 39.0147 19.3333 45.4628 21.0651L46.7147 21.4013C51.1345 22.5883 55.8658 21.0585 58.7935 17.496L59.6167 16.4942C63.8807 11.3055 71.7992 11.3055 75.9567 16.4942Z" stroke="black" stroke-width="1.10753"/>
</svg>
