<svg fill="none" xmlns="http://www.w3.org/2000/svg" viewBox="0 0 17 15" class="DesktopTablet__Airplane-sc-vcbvn2-13 hTjPWm"><path d="M0.0199581 3.8732C0.0095118 3.81065 0.0577426 3.7537 0.121158 3.7537L0.652631 3.7537C0.6814 3.7537 0.708847 3.76578 0.728281 3.78699L3.08289 6.35694C3.10232 6.37815 3.12977 6.39023 3.15854 6.39023L6.05767 6.39023C6.12533 6.39023 6.17447 6.32588 6.15665 6.26061L4.48321 0.129618C4.46539 0.0643445 4.51452 0 4.58219 0L5.66139 0C5.69351 0 5.72377 0.0150377 5.74317 0.0406346L10.5542 6.38954C10.5545 6.38997 10.555 6.39023 10.5555 6.39023L15.2859 6.39023C15.8988 6.39023 16.3956 6.88709 16.3956 7.5C16.3956 8.11291 15.8988 8.60977 15.2859 8.60977L10.5555 8.60977C10.555 8.60977 10.5545 8.61003 10.5542 8.61046L5.74317 14.9594C5.72377 14.985 5.69351 15 5.66139 15L4.58219 15C4.51452 15 4.46539 14.9357 4.48321 14.8704L6.15665 8.73939C6.17447 8.67412 6.12533 8.60977 6.05767 8.60977L3.15854 8.60977C3.12977 8.60977 3.10232 8.62185 3.08289 8.64306L0.728281 11.213C0.708847 11.2342 0.6814 11.2463 0.652631 11.2463L0.121158 11.2463C0.0577426 11.2463 0.00951179 11.1893 0.0199581 11.1268L0.622844 7.5169C0.624713 7.50571 0.624713 7.49429 0.622844 7.4831L0.0199581 3.8732Z" fill="#d1cece"></path></svg>