<svg xmlns="http://www.w3.org/2000/svg" xmlns:xlink="http://www.w3.org/1999/xlink" width="500" zoomAndPan="magnify" viewBox="0 0 375 374.999991" height="500" preserveAspectRatio="xMidYMid meet" version="1.0"><defs><g/><clipPath id="4fcb1ad2ea"><path d="M 1 58.296875 L 226 58.296875 L 226 317 L 1 317 Z M 1 58.296875 " clip-rule="nonzero"/></clipPath><clipPath id="75acdd2eb0"><path d="M 150 58.296875 L 375 58.296875 L 375 317 L 150 317 Z M 150 58.296875 " clip-rule="nonzero"/></clipPath><clipPath id="002f1d1f23"><path d="M 1 58.296875 L 226 58.296875 L 226 317 L 1 317 Z M 1 58.296875 " clip-rule="nonzero"/></clipPath></defs><g clip-path="url(#4fcb1ad2ea)"><path fill="#ffffff" d="M 216.390625 58.265625 C 221.597656 58.265625 225.855469 62.523438 225.855469 67.726562 L 225.855469 307.277344 C 225.855469 312.480469 221.597656 316.730469 216.390625 316.730469 L 156.613281 316.730469 C 151.410156 316.730469 147.152344 312.476562 147.152344 307.277344 L 147.152344 225.117188 C 147.152344 219.914062 145.023438 219.34375 142.425781 223.847656 L 93.527344 308.539062 C 90.925781 313.042969 84.542969 316.730469 79.335938 316.730469 L 7.394531 316.730469 C 2.195312 316.730469 0.0625 313.042969 2.660156 308.539062 L 142.425781 66.464844 C 145.023438 61.964844 147.152344 58.273438 147.152344 58.273438 C 147.152344 58.265625 151.410156 58.265625 156.613281 58.265625 Z M 216.390625 58.265625 " fill-opacity="1" fill-rule="nonzero"/></g><g clip-path="url(#75acdd2eb0)"><path fill="#ffffff" d="M 365.476562 58.265625 C 370.683594 58.265625 374.9375 62.523438 374.9375 67.726562 L 374.9375 307.277344 C 374.9375 312.480469 370.683594 316.730469 365.476562 316.730469 L 305.699219 316.730469 C 300.492188 316.730469 296.238281 312.476562 296.238281 307.277344 L 296.238281 225.117188 C 296.238281 219.914062 294.109375 219.34375 291.511719 223.847656 L 242.613281 308.539062 C 240.011719 313.042969 233.636719 316.730469 228.429688 316.730469 L 156.480469 316.730469 C 151.273438 316.730469 149.144531 313.042969 151.746094 308.539062 L 291.515625 66.464844 C 294.117188 61.964844 296.246094 58.273438 296.246094 58.273438 C 296.246094 58.265625 300.5 58.265625 305.707031 58.265625 Z M 365.476562 58.265625 " fill-opacity="1" fill-rule="nonzero"/></g><g clip-path="url(#002f1d1f23)"><path fill="#ffffff" d="M 142.425781 223.855469 L 93.527344 308.546875 C 90.925781 313.050781 84.542969 316.738281 79.335938 316.738281 L 7.394531 316.738281 C 2.195312 316.738281 0.0625 313.050781 2.660156 308.546875 L 142.425781 66.464844 C 145.023438 61.964844 147.152344 58.273438 147.152344 58.273438 C 147.152344 58.265625 151.410156 58.265625 156.613281 58.265625 L 216.390625 58.265625 C 221.597656 58.265625 225.855469 62.523438 225.855469 67.726562 L 225.855469 149.492188 L 147.160156 285.800781 L 147.160156 225.125 C 147.160156 219.921875 145.03125 219.34375 142.425781 223.855469 Z M 142.425781 223.855469 " fill-opacity="1" fill-rule="nonzero"/></g><g fill="#000000" fill-opacity="1"><g transform="translate(96.879865, 219.751524)"><g><path d="M 87.609375 -13.8125 C 87.992188 -13.625 88.128906 -13.316406 88.015625 -12.890625 C 87.898438 -12.472656 87.6875 -12.03125 87.375 -11.5625 C 87.0625 -11.101562 86.773438 -10.71875 86.515625 -10.40625 C 86.390625 -10.269531 86.304688 -10.15625 86.265625 -10.0625 C 83.992188 -6.914062 82.023438 -3.613281 80.359375 -0.15625 C 78.691406 3.300781 77.125 6.820312 75.65625 10.40625 C 75.039062 11.789062 74.445312 13.171875 73.875 14.546875 C 72.53125 17.585938 71.226562 20.644531 69.96875 23.71875 C 67.800781 28.976562 65.507812 34.207031 63.09375 39.40625 C 62.238281 41.21875 61.28125 42.988281 60.21875 44.71875 C 59.363281 46.132812 58.050781 46.828125 56.28125 46.796875 C 54.832031 46.828125 53.953125 46.15625 53.640625 44.78125 C 53.316406 43.582031 53.140625 42.363281 53.109375 41.125 C 52.921875 36.445312 53.035156 31.78125 53.453125 27.125 C 53.734375 23.894531 53.988281 20.679688 54.21875 17.484375 C 54.4375 14.023438 54.707031 10.566406 55.03125 7.109375 C 55.707031 -0.773438 56.457031 -8.660156 57.28125 -16.546875 C 58.238281 -25.578125 59.234375 -34.582031 60.265625 -43.5625 C 62.066406 -58.800781 63.664062 -74.085938 65.0625 -89.421875 C 65.132812 -90.378906 65.148438 -91.164062 65.109375 -91.78125 C 65.078125 -92.40625 64.941406 -92.640625 64.703125 -92.484375 C 64.472656 -92.328125 64.113281 -91.59375 63.625 -90.28125 C 59.082031 -77.207031 54.890625 -64.039062 51.046875 -50.78125 C 50.878906 -50.289062 50.742188 -49.804688 50.640625 -49.328125 C 48.335938 -41.453125 46.003906 -33.597656 43.640625 -25.765625 C 42.773438 -22.722656 41.765625 -19.640625 40.609375 -16.515625 C 39.453125 -13.398438 38.125 -10.460938 36.625 -7.703125 C 36.164062 -6.898438 35.566406 -6.351562 34.828125 -6.0625 C 34.097656 -5.78125 33.269531 -5.691406 32.34375 -5.796875 C 31.382812 -5.878906 30.675781 -6.34375 30.21875 -7.1875 C 29.84375 -7.988281 29.609375 -8.851562 29.515625 -9.78125 C 29.410156 -10.863281 29.296875 -11.960938 29.171875 -13.078125 C 28.878906 -15.523438 28.632812 -17.960938 28.4375 -20.390625 C 27.894531 -27.191406 27.179688 -34.015625 26.296875 -40.859375 C 25.421875 -47.710938 24.285156 -54.476562 22.890625 -61.15625 C 22.503906 -62.851562 21.9375 -62.8125 21.1875 -61.03125 C 20.445312 -59.25 19.601562 -56.257812 18.65625 -52.0625 C 17.71875 -47.863281 16.71875 -43.035156 15.65625 -37.578125 C 14.601562 -32.117188 13.585938 -26.5625 12.609375 -20.90625 C 11.628906 -15.25 10.726562 -10.082031 9.90625 -5.40625 C 8.6875 1.863281 7.863281 6.5 7.4375 8.5 C 7.09375 9.925781 6.613281 11.285156 6 12.578125 C 5.71875 13.160156 5.328125 13.546875 4.828125 13.734375 C 4.335938 13.929688 3.785156 13.992188 3.171875 13.921875 C 1.953125 13.765625 1.203125 13.054688 0.921875 11.796875 C 0.816406 11.128906 0.765625 10.457031 0.765625 9.78125 C 0.710938 9.238281 0.6875 8.695312 0.6875 8.15625 C 0.582031 6.039062 0.507812 3.90625 0.46875 1.75 C 0.15625 -14.738281 0.253906 -31.253906 0.765625 -47.796875 C 1.097656 -58.242188 1.398438 -68.71875 1.671875 -79.21875 C 1.671875 -80.332031 1.671875 -81.46875 1.671875 -82.625 C 1.640625 -83.695312 1.640625 -84.789062 1.671875 -85.90625 C 1.710938 -86.757812 2.03125 -87.347656 2.625 -87.671875 C 3.21875 -87.992188 3.914062 -87.984375 4.71875 -87.640625 C 5.03125 -87.535156 5.242188 -87.363281 5.359375 -87.125 C 5.472656 -86.882812 5.546875 -86.617188 5.578125 -86.328125 C 5.929688 -83.441406 6.054688 -80.554688 5.953125 -77.671875 C 5.898438 -75.941406 5.835938 -74.210938 5.765625 -72.484375 C 5.640625 -67.742188 5.484375 -63.007812 5.296875 -58.28125 C 5.066406 -52.175781 4.914062 -46.082031 4.84375 -40 C 4.757812 -35.507812 4.664062 -31.007812 4.5625 -26.5 C 4.4375 -21.726562 4.394531 -16.96875 4.4375 -12.21875 C 4.4375 -8.945312 4.414062 -5.632812 4.375 -2.28125 C 4.375 -2.09375 4.394531 -1.796875 4.4375 -1.390625 C 4.488281 -0.984375 4.5625 -0.554688 4.65625 -0.109375 C 4.75 0.328125 4.84375 0.675781 4.9375 0.9375 C 5.03125 1.207031 5.144531 1.273438 5.28125 1.140625 C 5.414062 1.003906 5.539062 0.570312 5.65625 -0.15625 C 5.988281 -2.269531 6.375 -4.65625 6.8125 -7.3125 C 7.769531 -13.570312 8.910156 -20.472656 10.234375 -28.015625 C 11.554688 -35.554688 13.046875 -42.675781 14.703125 -49.375 C 16.367188 -56.070312 18.160156 -61.273438 20.078125 -64.984375 C 20.878906 -66.328125 21.875 -66.976562 23.0625 -66.9375 C 24.25 -66.894531 25.210938 -66.164062 25.953125 -64.75 C 26.910156 -62.476562 27.71875 -59.695312 28.375 -56.40625 C 29.03125 -53.125 29.578125 -49.703125 30.015625 -46.140625 C 30.453125 -42.585938 30.828125 -39.257812 31.140625 -36.15625 C 31.296875 -34.457031 31.453125 -32.914062 31.609375 -31.53125 C 31.835938 -29.332031 32.050781 -27.316406 32.25 -25.484375 C 32.695312 -21.128906 33.113281 -17.738281 33.5 -15.3125 C 33.882812 -12.894531 34.40625 -11.6875 35.0625 -11.6875 C 35.71875 -11.6875 36.613281 -13.191406 37.75 -16.203125 C 38.882812 -19.222656 40.429688 -24.019531 42.390625 -30.59375 C 44.148438 -36.675781 45.816406 -42.539062 47.390625 -48.1875 C 49.472656 -55.644531 51.628906 -63.054688 53.859375 -70.421875 C 56.085938 -77.785156 58.703125 -85.460938 61.703125 -93.453125 C 62.597656 -95.765625 63.523438 -97.671875 64.484375 -99.171875 C 65.453125 -100.671875 66.390625 -101.457031 67.296875 -101.53125 C 67.640625 -101.582031 67.984375 -101.535156 68.328125 -101.390625 C 68.679688 -101.253906 68.992188 -100.859375 69.265625 -100.203125 C 69.535156 -99.546875 69.691406 -98.453125 69.734375 -96.921875 C 69.796875 -94.347656 69.738281 -91.769531 69.5625 -89.1875 C 69.394531 -86.613281 69.195312 -84.039062 68.96875 -81.46875 C 68.9375 -81.15625 68.921875 -80.867188 68.921875 -80.609375 C 67.640625 -67.410156 66.210938 -54.242188 64.640625 -41.109375 C 63.648438 -32.523438 62.691406 -23.953125 61.765625 -15.390625 C 61.765625 -15.191406 61.742188 -14.972656 61.703125 -14.734375 C 60.867188 -6.742188 60.082031 1.25 59.34375 9.25 C 58.738281 16.28125 58.179688 23.316406 57.671875 30.359375 C 57.640625 30.972656 57.601562 31.609375 57.5625 32.265625 C 57.445312 34.066406 57.367188 35.867188 57.328125 37.671875 C 57.328125 38.335938 57.328125 38.972656 57.328125 39.578125 C 57.296875 39.773438 57.3125 39.9375 57.375 40.0625 C 57.445312 40.195312 57.609375 40.265625 57.859375 40.265625 C 57.921875 40.265625 58 40.238281 58.09375 40.1875 C 58.195312 40.132812 58.265625 40.046875 58.296875 39.921875 C 60.609375 35.148438 62.863281 30.390625 65.0625 25.640625 C 67.125 21.054688 69.242188 16.484375 71.421875 11.921875 C 73.597656 7.359375 75.898438 2.832031 78.328125 -1.65625 C 80.316406 -5.425781 82.160156 -8.441406 83.859375 -10.703125 C 85.554688 -12.972656 86.804688 -14.007812 87.609375 -13.8125 Z M 87.609375 -13.8125 "/></g></g></g><g fill="#000000" fill-opacity="1"><g transform="translate(182.384222, 219.751524)"><g><path d="M 29.65625 -13.46875 C 29.175781 -12 28.222656 -10.316406 26.796875 -8.421875 C 25.378906 -6.523438 23.601562 -5.304688 21.46875 -4.765625 C 19.332031 -4.222656 17.488281 -4.296875 15.9375 -4.984375 C 14.382812 -5.679688 13.53125 -7.53125 13.375 -10.53125 C 11.601562 -7.113281 9.914062 -4.921875 8.3125 -3.953125 C 6.71875 -2.992188 5.054688 -2.628906 3.328125 -2.859375 C 1.367188 -3.171875 0.046875 -3.929688 -0.640625 -5.140625 C -1.328125 -6.347656 -1.554688 -7.738281 -1.328125 -9.3125 C -1.109375 -10.894531 -0.628906 -12.414062 0.109375 -13.875 C 0.679688 -14.957031 1.476562 -15.957031 2.5 -16.875 C 3.519531 -17.800781 4.59375 -18.53125 5.71875 -19.0625 C 7.09375 -19.757812 8.476562 -20.085938 9.875 -20.046875 C 11.28125 -20.015625 12.773438 -19.554688 14.359375 -18.671875 C 14.398438 -18.628906 14.421875 -18.660156 14.421875 -18.765625 C 14.421875 -18.921875 14.457031 -19.117188 14.53125 -19.359375 C 14.613281 -19.597656 14.75 -19.785156 14.9375 -19.921875 C 15.46875 -20.304688 16.085938 -20.5 16.796875 -20.5 C 17.515625 -20.5 18.066406 -20.140625 18.453125 -19.421875 C 18.523438 -18.492188 18.429688 -17.316406 18.171875 -15.890625 C 17.585938 -12.742188 17.582031 -10.476562 18.15625 -9.09375 C 18.738281 -7.71875 19.757812 -7.078125 21.21875 -7.171875 C 22.675781 -7.265625 24.566406 -8.703125 26.890625 -11.484375 C 29.210938 -14.273438 30.132812 -14.9375 29.65625 -13.46875 Z M 3.859375 -6.078125 C 4.660156 -5.503906 5.578125 -5.582031 6.609375 -6.3125 C 7.648438 -7.050781 8.648438 -8.09375 9.609375 -9.4375 C 10.578125 -10.78125 11.390625 -12.125 12.046875 -13.46875 C 12.703125 -14.820312 13.066406 -15.820312 13.140625 -16.46875 C 11.179688 -17.507812 9.5 -17.6875 8.09375 -17 C 6.695312 -16.3125 5.582031 -15.179688 4.75 -13.609375 C 3.925781 -12.046875 3.4375 -10.523438 3.28125 -9.046875 C 3.125 -7.578125 3.316406 -6.585938 3.859375 -6.078125 Z M 3.859375 -6.078125 "/></g></g></g><g fill="#000000" fill-opacity="1"><g transform="translate(210.160687, 219.751524)"><g><path d="M 25.6875 -12.71875 C 27.175781 -14.375 27.957031 -15.007812 28.03125 -14.625 C 28.113281 -14.238281 27.796875 -13.34375 27.078125 -11.9375 C 26.359375 -10.53125 25.25 -9.332031 23.75 -8.34375 C 22.644531 -7.65625 21.695312 -7.191406 20.90625 -6.953125 C 20.113281 -6.722656 19.394531 -6.585938 18.75 -6.546875 C 17.46875 -6.484375 16.488281 -6.851562 15.8125 -7.65625 C 15.144531 -8.457031 14.679688 -9.488281 14.421875 -10.75 C 14.160156 -12.019531 13.96875 -13.332031 13.84375 -14.6875 C 13.71875 -15.539062 13.601562 -16.304688 13.5 -16.984375 C 13.34375 -18.066406 13.03125 -18.664062 12.5625 -18.78125 C 12.101562 -18.894531 11.394531 -18.203125 10.4375 -16.703125 C 9.4375 -15.085938 8.5625 -13.3125 7.8125 -11.375 C 7.0625 -9.4375 6.394531 -7.539062 5.8125 -5.6875 C 5.78125 -5.613281 5.75 -5.519531 5.71875 -5.40625 C 5.59375 -5.132812 5.492188 -4.863281 5.421875 -4.59375 C 5.191406 -3.820312 4.921875 -3.066406 4.609375 -2.328125 C 4.347656 -1.722656 3.898438 -1.320312 3.265625 -1.125 C 2.628906 -0.9375 1.960938 -0.984375 1.265625 -1.265625 C 0.804688 -1.453125 0.5 -1.773438 0.34375 -2.234375 C 0.113281 -2.929688 0.0351562 -3.640625 0.109375 -4.359375 C 0.109375 -4.441406 0.109375 -4.5 0.109375 -4.53125 C 0.265625 -7.570312 0.289062 -12.632812 0.1875 -19.71875 C 0.09375 -25.363281 0.046875 -31.4375 0.046875 -37.9375 C 0.046875 -44.4375 0.210938 -50.566406 0.546875 -56.328125 C 0.878906 -62.097656 1.445312 -66.710938 2.25 -70.171875 C 2.601562 -71.429688 3.179688 -72.5625 3.984375 -73.5625 C 4.785156 -74.570312 5.675781 -75.125 6.65625 -75.21875 C 7.632812 -75.3125 8.550781 -74.644531 9.40625 -73.21875 C 9.988281 -71.988281 10.347656 -70.6875 10.484375 -69.3125 C 10.867188 -65.21875 10.523438 -58.929688 9.453125 -50.453125 C 8.378906 -41.984375 7.253906 -34.566406 6.078125 -28.203125 C 4.910156 -21.847656 4.328125 -16.535156 4.328125 -12.265625 C 4.710938 -12.910156 5.097656 -13.601562 5.484375 -14.34375 C 6.023438 -15.425781 6.628906 -16.503906 7.296875 -17.578125 C 7.972656 -18.648438 8.769531 -19.5625 9.6875 -20.3125 C 10.601562 -21.0625 11.71875 -21.535156 13.03125 -21.734375 C 13.914062 -21.867188 14.816406 -21.804688 15.734375 -21.546875 C 16.660156 -21.285156 17.28125 -20.648438 17.59375 -19.640625 C 17.976562 -17.867188 18.109375 -15.988281 17.984375 -14 C 17.984375 -11.882812 18.347656 -10.546875 19.078125 -9.984375 C 19.816406 -9.429688 20.734375 -9.335938 21.828125 -9.703125 C 22.921875 -10.066406 24.207031 -11.070312 25.6875 -12.71875 Z M 6.109375 -66.921875 C 5.910156 -64.742188 5.6875 -61.097656 5.4375 -55.984375 C 5.195312 -50.867188 4.988281 -45.742188 4.8125 -40.609375 C 4.644531 -35.472656 4.5625 -31.195312 4.5625 -27.78125 C 4.976562 -30.863281 5.484375 -34.875 6.078125 -39.8125 C 6.671875 -44.75 7.195312 -49.828125 7.65625 -55.046875 C 8.125 -60.273438 8.359375 -64.203125 8.359375 -66.828125 C 8.328125 -68.203125 8.234375 -69.222656 8.078125 -69.890625 C 7.921875 -70.566406 7.65625 -70.804688 7.28125 -70.609375 C 6.914062 -70.421875 6.632812 -69.929688 6.4375 -69.140625 C 6.25 -68.359375 6.140625 -67.617188 6.109375 -66.921875 Z M 6.109375 -66.921875 "/></g></g></g><g fill="#000000" fill-opacity="1"><g transform="translate(236.757975, 219.751524)"><g><path d="M 25.265625 -12.65625 C 25.648438 -12.882812 26.023438 -13.0625 26.390625 -13.1875 C 26.765625 -13.3125 27.007812 -13.300781 27.125 -13.15625 C 27.238281 -13.019531 27.082031 -12.707031 26.65625 -12.21875 C 25.34375 -10.71875 23.773438 -9.34375 21.953125 -8.09375 C 20.128906 -6.84375 18.253906 -5.785156 16.328125 -4.921875 C 14.828125 -4.242188 13.238281 -3.703125 11.5625 -3.296875 C 9.894531 -2.898438 8.242188 -2.8125 6.609375 -3.03125 C 4.984375 -3.257812 3.5 -3.988281 2.15625 -5.21875 C 0.101562 -7.101562 -0.742188 -9.410156 -0.390625 -12.140625 C -0.0976562 -14.304688 0.738281 -16.144531 2.125 -17.65625 C 3.519531 -19.164062 5.273438 -20.191406 7.390625 -20.734375 C 9.160156 -21.117188 10.925781 -21.160156 12.6875 -20.859375 C 13.488281 -20.742188 14.222656 -20.472656 14.890625 -20.046875 C 15.503906 -19.578125 15.835938 -19.023438 15.890625 -18.390625 C 15.953125 -17.765625 15.710938 -17.164062 15.171875 -16.59375 C 14.054688 -15.59375 12.765625 -15 11.296875 -14.8125 C 9.648438 -14.53125 8 -14.351562 6.34375 -14.28125 C 5.539062 -14.28125 4.976562 -14.113281 4.65625 -13.78125 C 4.332031 -13.457031 4.144531 -12.890625 4.09375 -12.078125 C 3.832031 -9.898438 4.53125 -8.117188 6.1875 -6.734375 C 7.21875 -5.910156 8.46875 -5.5625 9.9375 -5.6875 C 11.414062 -5.8125 12.984375 -6.207031 14.640625 -6.875 C 16.304688 -7.550781 17.9375 -8.335938 19.53125 -9.234375 C 21.125 -10.140625 22.554688 -10.992188 23.828125 -11.796875 C 24.367188 -12.148438 24.847656 -12.4375 25.265625 -12.65625 Z M 7.046875 -17.328125 C 7.046875 -17.296875 7.019531 -17.28125 6.96875 -17.28125 C 6.90625 -17.207031 6.816406 -17.117188 6.703125 -17.015625 C 6.585938 -16.921875 6.476562 -16.828125 6.375 -16.734375 C 6.28125 -16.640625 6.234375 -16.578125 6.234375 -16.546875 C 6.273438 -16.421875 6.59375 -16.390625 7.1875 -16.453125 C 7.78125 -16.515625 8.429688 -16.617188 9.140625 -16.765625 C 9.859375 -16.910156 10.457031 -17.109375 10.9375 -17.359375 C 11.425781 -17.617188 11.570312 -17.921875 11.375 -18.265625 C 11.289062 -18.367188 11.179688 -18.460938 11.046875 -18.546875 C 10.921875 -18.628906 10.773438 -18.6875 10.609375 -18.71875 C 9.910156 -18.71875 9.273438 -18.582031 8.703125 -18.3125 C 8.128906 -18.039062 7.578125 -17.710938 7.046875 -17.328125 Z M 7.046875 -17.328125 "/></g></g></g><g fill="#000000" fill-opacity="1"><g transform="translate(262.123652, 219.751524)"><g><path d="M 21.671875 -10.09375 C 23.023438 -12.226562 23.828125 -13.582031 24.078125 -14.15625 C 24.328125 -14.726562 24.523438 -14.703125 24.671875 -14.078125 C 24.828125 -13.453125 24.394531 -12.03125 23.375 -9.8125 C 22.363281 -7.601562 21.109375 -5.898438 19.609375 -4.703125 C 18.109375 -3.503906 16.707031 -3.0625 15.40625 -3.375 C 14.101562 -3.695312 13.171875 -4.601562 12.609375 -6.09375 C 12.046875 -7.59375 11.878906 -9.476562 12.109375 -11.75 C 12.109375 -11.78125 12.125 -11.875 12.15625 -12.03125 C 12.195312 -12.414062 12.265625 -12.984375 12.359375 -13.734375 C 12.453125 -14.484375 12.519531 -15.257812 12.5625 -16.0625 C 12.613281 -16.875 12.585938 -17.539062 12.484375 -18.0625 C 12.390625 -18.582031 12.148438 -18.765625 11.765625 -18.609375 C 10.835938 -18.109375 9.929688 -17.117188 9.046875 -15.640625 C 8.171875 -14.160156 7.375 -12.613281 6.65625 -11 C 5.9375 -9.382812 5.429688 -8.078125 5.140625 -7.078125 C 5.015625 -6.765625 4.898438 -6.429688 4.796875 -6.078125 C 4.640625 -5.628906 4.460938 -5.175781 4.265625 -4.71875 C 3.765625 -3.40625 2.882812 -2.898438 1.625 -3.203125 C 0.925781 -3.359375 0.515625 -3.785156 0.390625 -4.484375 C 0.359375 -5.023438 0.34375 -5.539062 0.34375 -6.03125 C 0.34375 -6.34375 0.320312 -6.628906 0.28125 -6.890625 C 0.21875 -10.773438 0.125 -14.679688 0 -18.609375 C 0.03125 -19.066406 0.226562 -19.378906 0.59375 -19.546875 C 0.96875 -19.722656 1.40625 -19.8125 1.90625 -19.8125 C 2.289062 -19.8125 2.65625 -19.707031 3 -19.5 C 3.34375 -19.289062 3.554688 -18.851562 3.640625 -18.1875 C 3.679688 -17.96875 3.703125 -17.742188 3.703125 -17.515625 C 3.734375 -17.390625 3.75 -17.273438 3.75 -17.171875 C 3.820312 -16.628906 3.859375 -16.164062 3.859375 -15.78125 C 3.859375 -15.207031 3.894531 -14.8125 3.96875 -14.59375 C 4.050781 -14.382812 4.21875 -14.394531 4.46875 -14.625 C 4.71875 -14.851562 5.132812 -15.394531 5.71875 -16.25 C 6.707031 -17.789062 7.9375 -19.09375 9.40625 -20.15625 C 10.75 -21.113281 12.226562 -21.515625 13.84375 -21.359375 C 15.21875 -21.222656 16.144531 -20.5 16.625 -19.1875 C 16.8125 -18.519531 16.90625 -17.847656 16.90625 -17.171875 C 16.90625 -16.503906 16.863281 -15.832031 16.78125 -15.15625 C 16.738281 -14.457031 16.6875 -13.738281 16.625 -13 C 16.570312 -12.769531 16.523438 -12.546875 16.484375 -12.328125 C 16.253906 -9.828125 16.332031 -8.148438 16.71875 -7.296875 C 17.101562 -6.453125 17.6875 -6.171875 18.46875 -6.453125 C 19.257812 -6.742188 20.328125 -7.957031 21.671875 -10.09375 Z M 21.671875 -10.09375 "/></g></g></g><g fill="#000000" fill-opacity="1"><g transform="translate(285.18336, 219.751524)"><g><path d="M 41.125 -12.796875 C 41.28125 -13.085938 41.519531 -13.242188 41.84375 -13.265625 C 42.175781 -13.285156 42.453125 -13.082031 42.671875 -12.65625 C 42.765625 -12.550781 42.679688 -12.257812 42.421875 -11.78125 C 42.171875 -11.300781 41.835938 -10.757812 41.421875 -10.15625 C 41.003906 -9.550781 40.601562 -9 40.21875 -8.5 C 39.832031 -8.007812 39.5625 -7.6875 39.40625 -7.53125 C 37.675781 -5.601562 35.9375 -4.1875 34.1875 -3.28125 C 32.4375 -2.382812 30.535156 -2.191406 28.484375 -2.703125 C 26.441406 -3.222656 24.15625 -4.679688 21.625 -7.078125 C 21.238281 -7.492188 20.851562 -7.914062 20.46875 -8.34375 C 20.363281 -8.457031 20.269531 -8.566406 20.1875 -8.671875 C 19.769531 -9.148438 19.304688 -9.210938 18.796875 -8.859375 C 18.273438 -8.472656 17.742188 -8.085938 17.203125 -7.703125 C 16.722656 -7.359375 16.238281 -7.035156 15.75 -6.734375 C 14.125 -5.617188 12.410156 -4.675781 10.609375 -3.90625 C 8.691406 -3.050781 6.675781 -2.71875 4.5625 -2.90625 C 1.257812 -3.289062 -0.453125 -5.117188 -0.578125 -8.390625 C -0.609375 -10.691406 -0.113281 -12.753906 0.90625 -14.578125 C 1.925781 -16.410156 3.347656 -17.757812 5.171875 -18.625 C 7.003906 -19.488281 9.109375 -19.660156 11.484375 -19.140625 C 11.742188 -19.085938 12.09375 -19.007812 12.53125 -18.90625 C 12.789062 -18.8125 13.113281 -18.734375 13.5 -18.671875 C 13.269531 -19.210938 13.0625 -19.691406 12.875 -20.109375 C 12.519531 -20.804688 12.210938 -21.441406 11.953125 -22.015625 C 10.359375 -25.285156 9.0625 -29.019531 8.0625 -33.21875 C 7.070312 -37.425781 6.582031 -41.738281 6.59375 -46.15625 C 6.613281 -50.582031 7.351562 -54.695312 8.8125 -58.5 C 10.28125 -62.3125 12.707031 -65.453125 16.09375 -67.921875 C 18.238281 -69.367188 20.457031 -70.15625 22.75 -70.28125 C 25.039062 -70.40625 27.203125 -69.90625 29.234375 -68.78125 C 31.273438 -67.664062 32.929688 -65.988281 34.203125 -63.75 C 35.847656 -60.675781 36.863281 -57.4375 37.25 -54.03125 C 37.945312 -48.519531 37.832031 -43.378906 36.90625 -38.609375 C 35.976562 -33.835938 34.34375 -29.328125 32 -25.078125 C 29.664062 -20.835938 26.6875 -16.71875 23.0625 -12.71875 C 22.71875 -12.332031 22.535156 -12.023438 22.515625 -11.796875 C 22.492188 -11.566406 22.660156 -11.242188 23.015625 -10.828125 C 23.753906 -9.867188 24.554688 -8.929688 25.421875 -8.015625 C 26.285156 -7.109375 27.25 -6.347656 28.3125 -5.734375 C 29.8125 -5.085938 31.414062 -5.078125 33.125 -5.703125 C 34.84375 -6.335938 36.429688 -7.316406 37.890625 -8.640625 C 39.347656 -9.972656 40.425781 -11.359375 41.125 -12.796875 Z M 15.421875 -10.484375 C 15.867188 -10.867188 15.898438 -11.304688 15.515625 -11.796875 C 15.285156 -12.078125 15.0625 -12.363281 14.84375 -12.65625 C 14.207031 -13.425781 13.488281 -14.21875 12.6875 -15.03125 C 11.882812 -15.84375 11.050781 -16.457031 10.1875 -16.875 C 9.320312 -17.300781 8.441406 -17.335938 7.546875 -16.984375 C 6.328125 -16.410156 5.320312 -15.394531 4.53125 -13.9375 C 3.75 -12.476562 3.285156 -10.976562 3.140625 -9.4375 C 3.003906 -7.894531 3.300781 -6.722656 4.03125 -5.921875 C 4.769531 -5.117188 6.019531 -5.039062 7.78125 -5.6875 C 10.5625 -6.914062 13.109375 -8.515625 15.421875 -10.484375 Z M 21.234375 -16.171875 C 24.921875 -20.523438 27.675781 -24.804688 29.5 -29.015625 C 31.332031 -33.234375 32.570312 -38.160156 33.21875 -43.796875 C 33.40625 -45.179688 33.488281 -46.992188 33.46875 -49.234375 C 33.457031 -51.472656 33.257812 -53.8125 32.875 -56.25 C 32.488281 -58.6875 31.796875 -60.90625 30.796875 -62.90625 C 29.804688 -64.90625 28.414062 -66.34375 26.625 -67.21875 C 24.832031 -68.101562 22.535156 -68.101562 19.734375 -67.21875 C 16.660156 -65.414062 14.378906 -63.023438 12.890625 -60.046875 C 11.410156 -57.066406 10.566406 -53.75 10.359375 -50.09375 C 10.148438 -46.445312 10.390625 -42.71875 11.078125 -38.90625 C 11.765625 -35.09375 12.722656 -31.476562 13.953125 -28.0625 C 15.191406 -24.644531 16.519531 -21.671875 17.9375 -19.140625 C 18.09375 -18.828125 18.25 -18.507812 18.40625 -18.1875 C 18.820312 -17.15625 19.429688 -16.222656 20.234375 -15.390625 C 20.359375 -15.492188 20.484375 -15.585938 20.609375 -15.671875 C 20.835938 -15.816406 21.046875 -15.984375 21.234375 -16.171875 Z M 21.234375 -16.171875 "/></g></g></g><g fill="#000000" fill-opacity="1"><g transform="translate(326.061932, 219.751524)"><g><path d="M 16.71875 -12.5625 C 17.050781 -13.238281 17.28125 -13.550781 17.40625 -13.5 C 17.53125 -13.445312 17.5625 -13.171875 17.5 -12.671875 C 17.4375 -12.171875 17.328125 -11.609375 17.171875 -10.984375 C 16.941406 -10.023438 16.546875 -8.910156 15.984375 -7.640625 C 15.429688 -6.367188 14.8125 -5.21875 14.125 -4.1875 C 13.113281 -2.757812 11.859375 -1.679688 10.359375 -0.953125 C 8.867188 -0.234375 7.515625 -0.0546875 6.296875 -0.421875 C 5.085938 -0.785156 4.382812 -1.929688 4.1875 -3.859375 C 4.15625 -5.460938 4.296875 -7.226562 4.609375 -9.15625 C 4.710938 -9.957031 4.828125 -10.742188 4.953125 -11.515625 C 4.953125 -11.785156 4.878906 -11.992188 4.734375 -12.140625 C 4.597656 -12.296875 4.414062 -12.359375 4.1875 -12.328125 C 4.03125 -12.328125 3.859375 -12.328125 3.671875 -12.328125 C 2.710938 -12.160156 1.734375 -12.175781 0.734375 -12.375 C -0.453125 -12.71875 -1.140625 -13.304688 -1.328125 -14.140625 C -1.523438 -14.972656 -1.507812 -16.0625 -1.28125 -17.40625 C -1.15625 -18.363281 -0.796875 -19.082031 -0.203125 -19.5625 C 0.390625 -20.050781 1.085938 -20.25 1.890625 -20.15625 C 3.003906 -20.050781 3.539062 -19.625 3.5 -18.875 C 3.46875 -18.125 3.265625 -17.320312 2.890625 -16.46875 C 2.535156 -15.75 2.347656 -15.148438 2.328125 -14.671875 C 2.316406 -14.191406 2.726562 -14.019531 3.5625 -14.15625 C 3.757812 -14.207031 3.96875 -14.269531 4.1875 -14.34375 C 4.507812 -14.457031 4.867188 -14.5625 5.265625 -14.65625 C 5.671875 -14.757812 6.195312 -14.785156 6.84375 -14.734375 C 7.613281 -14.703125 8.125 -14.347656 8.375 -13.671875 C 8.625 -12.992188 8.734375 -12.148438 8.703125 -11.140625 C 8.671875 -10.128906 8.578125 -9.097656 8.421875 -8.046875 C 8.222656 -6.734375 8.125 -5.609375 8.125 -4.671875 C 8.125 -3.742188 8.394531 -3.203125 8.9375 -3.046875 C 9.65625 -2.847656 10.722656 -3.492188 12.140625 -4.984375 C 13.566406 -6.484375 15.09375 -9.007812 16.71875 -12.5625 Z M 16.71875 -12.5625 "/></g></g></g><g fill="#000000" fill-opacity="1"><g transform="translate(342.09891, 219.751524)"><g><path d="M 29.65625 -13.46875 C 29.175781 -12 28.222656 -10.316406 26.796875 -8.421875 C 25.378906 -6.523438 23.601562 -5.304688 21.46875 -4.765625 C 19.332031 -4.222656 17.488281 -4.296875 15.9375 -4.984375 C 14.382812 -5.679688 13.53125 -7.53125 13.375 -10.53125 C 11.601562 -7.113281 9.914062 -4.921875 8.3125 -3.953125 C 6.71875 -2.992188 5.054688 -2.628906 3.328125 -2.859375 C 1.367188 -3.171875 0.046875 -3.929688 -0.640625 -5.140625 C -1.328125 -6.347656 -1.554688 -7.738281 -1.328125 -9.3125 C -1.109375 -10.894531 -0.628906 -12.414062 0.109375 -13.875 C 0.679688 -14.957031 1.476562 -15.957031 2.5 -16.875 C 3.519531 -17.800781 4.59375 -18.53125 5.71875 -19.0625 C 7.09375 -19.757812 8.476562 -20.085938 9.875 -20.046875 C 11.28125 -20.015625 12.773438 -19.554688 14.359375 -18.671875 C 14.398438 -18.628906 14.421875 -18.660156 14.421875 -18.765625 C 14.421875 -18.921875 14.457031 -19.117188 14.53125 -19.359375 C 14.613281 -19.597656 14.75 -19.785156 14.9375 -19.921875 C 15.46875 -20.304688 16.085938 -20.5 16.796875 -20.5 C 17.515625 -20.5 18.066406 -20.140625 18.453125 -19.421875 C 18.523438 -18.492188 18.429688 -17.316406 18.171875 -15.890625 C 17.585938 -12.742188 17.582031 -10.476562 18.15625 -9.09375 C 18.738281 -7.71875 19.757812 -7.078125 21.21875 -7.171875 C 22.675781 -7.265625 24.566406 -8.703125 26.890625 -11.484375 C 29.210938 -14.273438 30.132812 -14.9375 29.65625 -13.46875 Z M 3.859375 -6.078125 C 4.660156 -5.503906 5.578125 -5.582031 6.609375 -6.3125 C 7.648438 -7.050781 8.648438 -8.09375 9.609375 -9.4375 C 10.578125 -10.78125 11.390625 -12.125 12.046875 -13.46875 C 12.703125 -14.820312 13.066406 -15.820312 13.140625 -16.46875 C 11.179688 -17.507812 9.5 -17.6875 8.09375 -17 C 6.695312 -16.3125 5.582031 -15.179688 4.75 -13.609375 C 3.925781 -12.046875 3.4375 -10.523438 3.28125 -9.046875 C 3.125 -7.578125 3.316406 -6.585938 3.859375 -6.078125 Z M 3.859375 -6.078125 "/></g></g></g></svg>