<svg xmlns="http://www.w3.org/2000/svg" xmlns:xlink="http://www.w3.org/1999/xlink" width="100" height="100" viewBox="0 0 100 100"><defs><clipPath id="b"><rect width="100" height="100"/></clipPath></defs><g id="a" clip-path="url(#b)"><rect width="100" height="100" fill="#00d1ee"/><path d="M61.594,231.12h3.821v.529a3.822,3.822,0,0,1-7.641,0v-5.937a3.855,3.855,0,0,1,7.582-.823h3.968C69,220.8,66.238,218.1,61.594,218.1c-4.937,0-7.759,3.056-7.759,7.612v5.937c0,4.555,2.822,7.612,7.759,7.612s7.76-3.057,7.76-7.612v-4.438h-7.76Zm-19.573,2.322,2.674-7.671v13.2h3.792V218.394H44.431l-3.7,10.551-3.7-10.551H32.968v20.573H36.76v-13.2l2.674,7.671Zm-18.163-2.087a3.547,3.547,0,0,1-3.821,3.7H16.216V222.3h3.821a3.546,3.546,0,0,1,3.821,3.7Zm-3.821,7.612c4.938,0,7.759-3.057,7.759-7.612v-5.349c0-4.556-2.821-7.612-7.759-7.612H12.278v20.573Z" transform="translate(0 -150)" fill="#fff"/><path d="M54.481,211.127h4.7v-4.7h-4.7Zm4.291-20.573h-3.88v13.814h3.88ZM39.14,211.421c4.467,0,6.877-2.263,6.877-5.966,0-3.468-1.7-5.408-4.878-6.261l-3.351-.911c-1.117-.294-2.057-.823-2.057-2.028,0-1.44,1.175-2.086,2.674-2.086a2.9,2.9,0,0,1,2.939,2h4.379c-.44-3.5-3-5.907-7.112-5.907-3.586,0-6.819,1.881-6.819,6a5.876,5.876,0,0,0,4.7,6.084l3.469.941c1.439.382,2.115,1.028,2.115,2.175,0,1.41-1.2,2.057-2.939,2.057a3.316,3.316,0,0,1-3.556-2.88H31.528c.2,4.085,3.115,6.789,7.612,6.789m-12.96-.294v-3.909H21.889V194.463H26.18v-3.909H13.66v3.909h4.291v12.755H13.66v3.909Z" transform="translate(0 -150)" fill="#fff"/><path d="M77.229,183.581c4.468,0,6.878-2.263,6.878-5.966,0-3.468-1.705-5.408-4.879-6.26l-3.351-.911c-1.117-.294-2.057-.823-2.057-2.028,0-1.44,1.176-2.087,2.675-2.087a2.9,2.9,0,0,1,2.939,2h4.379c-.441-3.5-3-5.908-7.113-5.908-3.585,0-6.818,1.881-6.818,6a5.876,5.876,0,0,0,4.7,6.084l3.468.94c1.44.382,2.116,1.029,2.116,2.175,0,1.411-1.205,2.057-2.939,2.057a3.316,3.316,0,0,1-3.556-2.88H69.617c.206,4.085,3.116,6.789,7.612,6.789m-12.961-.294v-3.909H59.977V166.623h4.291v-3.909H51.748v3.909h4.291v12.755H51.748v3.909ZM42.784,170.943H35.143v-8.229H31.2v20.573h3.939v-8.435h7.641v8.435h3.939V162.714H42.784Zm-15.106-4.32v-3.909H12.16v3.909h5.731v16.664h4.056V166.623Z" transform="translate(0 -150)" fill="#fff"/></g></svg>